<?xml version="1.0" encoding="UTF-8"?>
<!-- Generator: visioncortex VTracer 0.6.5 -->
<svg version="1.1" xmlns="http://www.w3.org/2000/svg" width="1254" height="1254">
<path d="M0,0 L81,0 L85,1 L104,2 L105,3 L122,4 L123,5 L135,6 L137,7 L147,8 L148,9 L158,10 L168,12 L169,13 L177,14 L178,15 L193,18 L202,21 L215,24 L224,27 L244,33 L251,36 L261,39 L272,44 L276,45 L276,47 L281,47 L281,49 L286,50 L290,51 L290,53 L295,53 L295,55 L299,55 L299,57 L303,57 L303,59 L308,60 L312,61 L312,63 L316,63 L316,65 L320,65 L320,67 L324,67 L324,69 L327,69 L327,71 L331,71 L331,73 L335,74 L338,75 L338,77 L342,77 L342,79 L346,80 L349,81 L349,83 L352,83 L352,85 L356,85 L356,87 L359,87 L359,89 L362,89 L362,91 L366,91 L366,93 L372,95 L372,97 L375,97 L375,99 L378,99 L378,101 L381,101 L381,103 L384,103 L384,105 L390,107 L390,109 L395,111 L398,113 L398,115 L402,116 L404,117 L404,119 L409,121 L414,125 L428,136 L436,142 L436,144 L440,146 L443,148 L443,150 L445,150 L445,152 L448,152 L448,154 L450,154 L450,156 L454,158 L459,162 L459,164 L461,164 L461,166 L463,166 L463,168 L465,168 L465,170 L467,170 L467,172 L469,172 L469,174 L471,174 L471,176 L473,176 L473,178 L475,178 L475,180 L477,180 L477,182 L479,182 L479,184 L481,184 L481,186 L483,186 L483,188 L485,188 L485,190 L487,190 L487,192 L489,192 L489,194 L491,194 L491,196 L493,196 L493,198 L495,198 L495,200 L497,200 L497,202 L499,202 L503,207 L503,209 L505,209 L505,212 L507,212 L507,214 L509,214 L509,216 L511,216 L511,218 L513,218 L515,223 L517,223 L517,226 L519,226 L519,228 L521,228 L523,233 L525,233 L527,238 L529,238 L531,243 L533,243 L533,246 L535,246 L542,256 L550,268 L552,273 L554,273 L556,276 L556,279 L558,279 L560,282 L560,285 L562,285 L569,297 L570,301 L572,301 L576,308 L576,311 L578,311 L578,315 L580,315 L580,319 L582,319 L582,322 L584,322 L586,326 L586,329 L588,329 L588,333 L590,333 L590,337 L592,337 L592,341 L594,341 L594,345 L596,345 L596,349 L598,349 L598,353 L600,353 L600,357 L602,357 L602,362 L604,362 L604,366 L606,366 L606,371 L608,371 L608,375 L610,375 L610,380 L612,380 L612,385 L614,385 L614,390 L616,390 L616,395 L618,395 L618,400 L620,400 L620,405 L622,405 L622,411 L624,411 L624,417 L626,417 L626,423 L628,423 L630,429 L630,435 L632,435 L635,448 L638,456 L642,472 L643,479 L644,480 L647,498 L650,511 L655,548 L657,571 L658,604 L658,630 L657,662 L654,693 L650,722 L648,734 L645,746 L642,762 L641,763 L640,770 L639,771 L638,778 L636,778 L636,785 L633,793 L630,805 L628,805 L628,811 L626,811 L626,817 L624,817 L624,823 L622,823 L622,828 L620,828 L620,834 L619,834 L618,839 L616,839 L616,844 L614,844 L614,849 L612,849 L612,854 L611,854 L610,859 L608,863 L606,863 L606,867 L604,867 L604,872 L602,872 L602,876 L600,876 L600,881 L598,881 L598,885 L596,885 L596,889 L594,889 L593,893 L586,908 L584,908 L583,912 L582,915 L580,915 L579,919 L574,929 L572,929 L571,933 L568,939 L566,939 L565,943 L558,954 L550,966 L544,974 L543,977 L541,977 L539,982 L537,982 L536,986 L533,990 L531,990 L531,993 L529,993 L527,998 L525,998 L523,1003 L521,1006 L519,1006 L519,1008 L517,1008 L517,1010 L515,1010 L515,1013 L513,1013 L511,1018 L509,1018 L509,1020 L507,1020 L507,1022 L505,1022 L505,1024 L503,1024 L503,1027 L501,1027 L501,1029 L499,1029 L497,1033 L490,1040 L489,1042 L487,1042 L487,1044 L485,1044 L485,1046 L477,1053 L459,1071 L457,1071 L457,1073 L455,1073 L455,1075 L453,1075 L453,1077 L443,1085 L439,1087 L439,1089 L434,1091 L434,1093 L432,1093 L432,1095 L427,1097 L427,1099 L422,1101 L422,1103 L417,1105 L417,1107 L414,1107 L414,1109 L412,1109 L412,1111 L409,1111 L409,1113 L406,1113 L406,1115 L404,1115 L404,1117 L401,1117 L401,1119 L398,1119 L398,1121 L395,1123 L392,1123 L392,1125 L389,1127 L386,1127 L386,1129 L381,1131 L381,1133 L377,1135 L374,1135 L374,1137 L371,1139 L368,1139 L368,1141 L365,1141 L365,1143 L356,1148 L342,1156 L331,1162 L316,1170 L300,1177 L295,1178 L295,1180 L287,1183 L281,1186 L277,1186 L277,1188 L272,1188 L272,1190 L267,1190 L267,1192 L262,1192 L262,1194 L257,1194 L257,1196 L251,1196 L251,1198 L246,1198 L246,1200 L240,1200 L240,1202 L234,1202 L234,1204 L228,1204 L228,1206 L222,1206 L222,1208 L215,1208 L215,1210 L209,1211 L209,1212 L201,1212 L201,1214 L194,1215 L194,1216 L186,1217 L186,1218 L177,1218 L177,1220 L168,1220 L168,1222 L158,1222 L158,1224 L147,1224 L147,1226 L135,1226 L135,1228 L122,1229 L121,1230 L104,1230 L104,1232 L80,1232 L80,1234 L2,1234 L1,1233 L-22,1232 L-22,1230 L-40,1230 L-40,1228 L-53,1228 L-53,1226 L-66,1226 L-66,1224 L-76,1224 L-76,1222 L-86,1222 L-86,1220 L-95,1220 L-95,1218 L-104,1218 L-104,1217 L-112,1216 L-112,1215 L-119,1214 L-119,1212 L-127,1212 L-127,1211 L-134,1210 L-134,1209 L-140,1208 L-140,1206 L-146,1206 L-146,1204 L-152,1204 L-152,1202 L-158,1202 L-158,1200 L-164,1200 L-164,1198 L-169,1198 L-175,1196 L-175,1194 L-180,1194 L-180,1192 L-185,1192 L-190,1190 L-190,1188 L-195,1188 L-195,1186 L-200,1185 L-204,1184 L-204,1182 L-209,1182 L-209,1180 L-214,1179 L-222,1175 L-226,1174 L-226,1172 L-230,1172 L-230,1170 L-234,1170 L-234,1168 L-238,1167 L-254,1159 L-269,1151 L-273,1149 L-273,1147 L-277,1146 L-283,1143 L-283,1141 L-287,1140 L-289,1139 L-289,1137 L-293,1136 L-301,1131 L-301,1129 L-305,1129 L-305,1127 L-310,1125 L-313,1123 L-313,1121 L-317,1120 L-319,1119 L-319,1117 L-322,1117 L-322,1115 L-327,1113 L-327,1111 L-330,1111 L-330,1109 L-335,1107 L-335,1105 L-340,1103 L-340,1101 L-345,1099 L-345,1097 L-350,1095 L-350,1093 L-354,1091 L-357,1089 L-357,1087 L-362,1085 L-362,1083 L-366,1081 L-373,1075 L-373,1073 L-375,1073 L-375,1071 L-379,1069 L-384,1065 L-384,1063 L-388,1061 L-406,1043 L-406,1041 L-408,1041 L-412,1037 L-412,1034 L-414,1034 L-414,1032 L-416,1032 L-416,1030 L-418,1030 L-418,1028 L-420,1028 L-420,1026 L-422,1026 L-426,1021 L-426,1019 L-428,1019 L-428,1016 L-430,1016 L-430,1014 L-432,1014 L-432,1012 L-434,1012 L-436,1007 L-438,1007 L-438,1004 L-440,1004 L-440,1002 L-442,1002 L-444,997 L-446,997 L-446,994 L-448,994 L-448,992 L-450,992 L-454,986 L-454,984 L-456,984 L-458,981 L-458,978 L-460,978 L-462,973 L-464,973 L-467,968 L-471,962 L-475,956 L-482,945 L-489,934 L-494,925 L-497,920 L-497,917 L-499,917 L-504,907 L-509,898 L-509,895 L-511,895 L-511,891 L-513,891 L-513,887 L-515,887 L-515,883 L-517,883 L-517,878 L-519,878 L-519,874 L-521,874 L-521,870 L-523,870 L-523,865 L-525,865 L-525,861 L-527,861 L-527,856 L-529,856 L-529,851 L-531,851 L-531,847 L-533,847 L-533,841 L-535,841 L-535,836 L-537,836 L-537,831 L-539,831 L-540,826 L-541,826 L-541,820 L-543,820 L-543,814 L-545,814 L-545,808 L-547,808 L-547,802 L-549,802 L-551,795 L-551,789 L-553,789 L-553,782 L-555,782 L-555,775 L-557,775 L-558,767 L-559,766 L-560,759 L-561,758 L-562,750 L-563,749 L-564,741 L-565,740 L-566,731 L-567,729 L-568,720 L-569,718 L-573,688 L-575,667 L-577,621 L-576,585 L-574,558 L-573,545 L-570,525 L-567,504 L-564,492 L-563,484 L-562,483 L-561,475 L-560,474 L-559,467 L-557,467 L-557,459 L-555,459 L-555,452 L-553,445 L-551,445 L-551,438 L-549,438 L-549,432 L-547,432 L-547,425 L-545,425 L-545,419 L-543,419 L-543,414 L-541,414 L-541,408 L-539,408 L-539,402 L-538,402 L-537,397 L-535,397 L-535,392 L-533,392 L-533,387 L-531,387 L-531,382 L-529,382 L-529,377 L-527,377 L-527,373 L-525,373 L-525,368 L-523,368 L-523,364 L-521,364 L-521,359 L-519,359 L-519,355 L-517,355 L-517,351 L-515,351 L-515,347 L-513,347 L-513,343 L-511,343 L-511,339 L-509,339 L-509,335 L-507,335 L-507,331 L-505,331 L-504,327 L-501,320 L-499,320 L-499,317 L-497,317 L-497,313 L-495,313 L-494,309 L-491,303 L-489,303 L-488,299 L-485,293 L-483,293 L-482,289 L-475,278 L-462,258 L-460,258 L-460,255 L-458,255 L-456,250 L-454,250 L-454,247 L-452,247 L-450,242 L-448,242 L-448,239 L-446,239 L-444,234 L-442,234 L-442,232 L-440,232 L-440,229 L-438,229 L-436,224 L-434,224 L-434,222 L-432,222 L-432,220 L-430,220 L-430,217 L-428,217 L-426,212 L-424,212 L-424,210 L-422,210 L-422,208 L-420,208 L-420,206 L-418,206 L-418,204 L-416,204 L-414,200 L-406,190 L-404,190 L-404,188 L-402,188 L-402,186 L-400,186 L-400,184 L-398,184 L-398,182 L-396,182 L-396,180 L-394,180 L-394,178 L-392,178 L-392,176 L-390,176 L-390,174 L-388,174 L-388,172 L-386,172 L-386,170 L-379,164 L-377,164 L-377,162 L-375,162 L-375,160 L-370,158 L-370,156 L-368,156 L-368,154 L-361,148 L-359,148 L-359,146 L-353,142 L-349,138 L-347,138 L-347,136 L-341,132 L-337,129 L-335,129 L-335,127 L-329,123 L-327,123 L-327,121 L-321,117 L-319,117 L-319,115 L-316,113 L-313,113 L-313,111 L-311,111 L-311,109 L-308,107 L-305,107 L-305,105 L-302,105 L-302,103 L-299,103 L-299,101 L-296,101 L-296,99 L-293,99 L-293,97 L-290,97 L-290,95 L-287,95 L-287,93 L-283,93 L-283,91 L-280,89 L-277,89 L-277,87 L-274,87 L-274,85 L-270,83 L-267,83 L-267,81 L-263,81 L-263,79 L-260,79 L-260,77 L-256,77 L-256,75 L-253,75 L-253,73 L-249,73 L-249,71 L-245,71 L-245,69 L-242,67 L-238,67 L-238,65 L-234,65 L-234,63 L-230,63 L-230,61 L-226,61 L-226,59 L-221,59 L-221,57 L-217,57 L-217,55 L-213,55 L-213,53 L-208,53 L-208,51 L-204,51 L-204,49 L-199,49 L-199,47 L-194,47 L-194,45 L-180,40 L-173,37 L-143,27 L-133,24 L-119,20 L-97,15 L-87,13 L-86,12 L-67,9 L-66,8 L-54,7 L-53,6 L-41,5 L-40,4 L-23,3 L-22,2 L-3,1 Z " fill="#FEFEFE" transform="translate(579,9)"/>
<path d="M0,0 L381,0 L392,2 L393,3 L412,6 L412,8 L419,8 L426,11 L434,13 L442,17 L455,22 L460,24 L460,26 L464,27 L475,33 L490,42 L493,43 L493,45 L495,45 L500,50 L505,53 L522,70 L524,71 L527,76 L534,84 L536,85 L536,87 L538,87 L542,94 L546,99 L548,100 L551,107 L556,114 L559,124 L561,124 L561,128 L563,128 L563,132 L565,132 L565,136 L567,136 L573,152 L573,156 L575,156 L576,166 L578,166 L579,168 L581,181 L581,186 L583,186 L585,199 L586,221 L586,585 L584,600 L583,613 L580,623 L578,640 L575,639 L574,646 L572,654 L570,654 L568,664 L566,664 L565,668 L558,682 L552,691 L549,694 L547,694 L546,698 L540,705 L537,710 L532,715 L529,722 L526,727 L520,730 L517,733 L516,736 L514,736 L514,738 L503,746 L495,754 L486,759 L474,768 L455,777 L441,782 L434,785 L406,793 L400,795 L388,797 L372,797 L372,799 L0,799 L-3,798 L-27,796 L-36,793 L-36,791 L-48,789 L-49,788 L-58,786 L-67,784 L-74,782 L-74,780 L-78,780 L-78,778 L-82,778 L-82,776 L-86,776 L-86,774 L-92,772 L-99,767 L-107,764 L-107,762 L-111,760 L-123,751 L-128,747 L-131,746 L-131,744 L-133,744 L-133,742 L-135,742 L-135,740 L-137,740 L-137,738 L-139,738 L-146,730 L-154,722 L-158,717 L-163,713 L-169,705 L-172,698 L-178,690 L-178,688 L-181,688 L-186,677 L-190,667 L-194,659 L-197,652 L-200,644 L-202,641 L-208,620 L-210,608 L-212,577 L-212,215 L-208,184 L-206,174 L-203,167 L-202,160 L-199,154 L-196,144 L-195,142 L-193,142 L-191,134 L-182,115 L-172,100 L-169,93 L-167,93 L-167,91 L-165,91 L-164,87 L-161,83 L-159,83 L-158,79 L-140,61 L-134,58 L-131,53 L-126,49 L-118,45 L-115,42 L-110,39 L-105,35 L-93,28 L-86,24 L-82,24 L-82,22 L-77,20 L-68,16 L-60,13 L-52,10 L-47,10 L-47,8 L-40,8 L-40,6 L-29,5 L-17,2 L-4,1 Z " fill="#FEFEFE" transform="translate(433,229)"/>
<path d="M0,0 L381,0 L392,2 L393,3 L412,6 L412,8 L419,8 L426,11 L434,13 L442,17 L455,22 L460,24 L460,26 L464,27 L475,33 L490,42 L493,43 L493,45 L495,45 L500,50 L505,53 L522,70 L524,71 L527,76 L534,84 L536,85 L536,87 L538,87 L542,94 L546,99 L548,100 L551,107 L556,114 L559,124 L561,124 L561,128 L563,128 L563,132 L565,132 L565,136 L567,136 L573,152 L573,156 L575,156 L576,166 L578,166 L579,168 L581,181 L581,186 L583,186 L585,199 L586,221 L586,585 L584,600 L583,613 L580,623 L578,640 L575,639 L574,646 L572,654 L570,654 L568,664 L566,664 L565,668 L558,682 L552,691 L549,694 L547,694 L546,698 L540,705 L537,710 L532,715 L529,722 L526,727 L520,730 L517,733 L516,736 L514,736 L514,738 L503,746 L495,754 L486,759 L474,768 L455,777 L441,782 L434,785 L406,793 L400,795 L388,797 L372,797 L372,799 L0,799 L-3,798 L-27,796 L-36,793 L-36,791 L-48,789 L-49,788 L-58,786 L-67,784 L-74,782 L-74,780 L-78,780 L-78,778 L-82,778 L-82,776 L-86,776 L-86,774 L-92,772 L-99,767 L-107,764 L-107,762 L-111,760 L-123,751 L-128,747 L-131,746 L-131,744 L-133,744 L-133,742 L-135,742 L-135,740 L-137,740 L-137,738 L-139,738 L-146,730 L-154,722 L-158,717 L-163,713 L-169,705 L-172,698 L-178,690 L-178,688 L-181,688 L-186,677 L-190,667 L-194,659 L-197,652 L-200,644 L-202,641 L-208,620 L-210,608 L-212,577 L-212,215 L-208,184 L-206,174 L-203,167 L-202,160 L-199,154 L-196,144 L-195,142 L-193,142 L-191,134 L-182,115 L-172,100 L-169,93 L-167,93 L-167,91 L-165,91 L-164,87 L-161,83 L-159,83 L-158,79 L-140,61 L-134,58 L-131,53 L-126,49 L-118,45 L-115,42 L-110,39 L-105,35 L-93,28 L-86,24 L-82,24 L-82,22 L-77,20 L-68,16 L-60,13 L-52,10 L-47,10 L-47,8 L-40,8 L-40,6 L-29,5 L-17,2 L-4,1 Z M-2,77 L-11,79 L-11,81 L-21,81 L-21,83 L-27,83 L-35,86 L-40,87 L-40,89 L-47,90 L-59,95 L-74,105 L-78,108 L-78,111 L-82,112 L-88,117 L-90,118 L-90,120 L-94,122 L-98,126 L-98,128 L-100,128 L-110,141 L-116,150 L-119,155 L-121,160 L-123,166 L-123,170 L-125,170 L-128,177 L-131,186 L-133,193 L-134,202 L-135,203 L-137,223 L-137,585 L-136,587 L-135,600 L-134,601 L-132,614 L-130,618 L-128,627 L-123,637 L-121,637 L-121,641 L-119,641 L-119,646 L-113,656 L-107,664 L-100,674 L-96,679 L-91,683 L-86,688 L-81,693 L-76,696 L-72,702 L-69,702 L-69,704 L-57,708 L-49,713 L-46,713 L-46,715 L-38,717 L-31,721 L-15,723 L-3,725 L380,725 L391,722 L392,721 L399,720 L405,718 L405,716 L411,716 L411,714 L416,714 L416,712 L425,711 L425,708 L429,708 L429,706 L437,705 L441,702 L446,699 L451,695 L451,693 L455,691 L461,687 L461,685 L463,685 L463,683 L465,683 L465,681 L467,681 L472,675 L472,673 L477,672 L480,667 L487,658 L491,651 L493,649 L493,646 L495,646 L499,636 L499,633 L502,632 L503,620 L506,614 L507,606 L508,605 L508,594 L510,594 L510,211 L509,209 L507,195 L504,184 L502,177 L500,177 L499,172 L496,163 L494,163 L494,157 L489,147 L486,140 L481,135 L473,129 L466,121 L458,114 L455,111 L452,111 L450,107 L447,105 L444,105 L444,103 L435,97 L419,89 L412,86 L409,84 L396,81 L387,79 L374,77 Z " fill="#000000" transform="translate(433,229)"/>
<path d="M0,0 L50,0 L62,3 L80,6 L86,9 L96,12 L107,16 L117,20 L117,22 L121,23 L127,25 L128,27 L137,32 L143,37 L150,40 L154,44 L159,47 L166,53 L167,58 L171,59 L178,66 L185,74 L188,77 L188,79 L190,79 L190,81 L192,81 L195,86 L204,101 L208,106 L212,116 L216,125 L222,140 L223,141 L224,148 L227,156 L229,169 L231,181 L232,193 L232,226 L231,240 L229,240 L229,247 L228,248 L225,265 L222,273 L217,287 L215,288 L211,301 L206,310 L202,316 L199,321 L197,324 L195,324 L194,328 L187,338 L184,343 L182,346 L179,347 L178,350 L173,353 L172,356 L170,356 L170,358 L168,358 L168,360 L166,360 L166,362 L159,367 L157,370 L154,370 L154,372 L148,373 L148,375 L133,385 L130,386 L127,390 L124,390 L124,392 L106,400 L97,403 L90,404 L81,407 L67,410 L53,411 L50,412 L40,412 L40,414 L10,414 L-4,413 L-16,411 L-17,410 L-26,408 L-39,404 L-46,403 L-46,401 L-51,401 L-60,397 L-70,392 L-75,389 L-79,387 L-83,383 L-88,381 L-95,376 L-102,373 L-107,370 L-113,363 L-118,360 L-129,349 L-132,344 L-141,335 L-145,325 L-150,320 L-156,310 L-158,305 L-158,302 L-160,302 L-160,298 L-162,298 L-168,286 L-168,282 L-171,282 L-175,264 L-178,256 L-181,234 L-182,231 L-182,181 L-180,181 L-180,172 L-178,159 L-177,158 L-175,148 L-173,148 L-172,140 L-170,134 L-168,134 L-167,128 L-162,115 L-159,112 L-158,108 L-156,108 L-154,103 L-148,91 L-146,87 L-144,86 L-139,77 L-137,77 L-137,75 L-132,71 L-129,66 L-125,62 L-122,62 L-121,57 L-114,51 L-108,48 L-96,38 L-88,33 L-84,31 L-82,27 L-74,24 L-67,21 L-57,16 L-48,14 L-48,12 L-36,9 L-30,6 L-20,4 L-14,2 Z " fill="#000000" transform="translate(595,423)"/>
<path d="M0,0 L22,0 L44,2 L44,4 L54,4 L58,6 L58,8 L64,8 L64,10 L69,11 L79,15 L87,21 L95,25 L99,29 L104,31 L104,34 L108,36 L114,41 L115,47 L118,47 L121,51 L121,54 L123,54 L127,59 L129,63 L129,66 L131,66 L133,70 L133,73 L135,73 L137,80 L140,80 L144,90 L146,107 L149,120 L149,141 L147,156 L145,156 L145,166 L142,174 L141,178 L139,178 L138,187 L133,197 L129,199 L128,204 L122,214 L119,214 L117,218 L113,223 L111,223 L109,228 L103,235 L94,241 L90,242 L90,244 L82,250 L75,253 L66,256 L63,257 L56,257 L56,259 L49,259 L48,262 L33,265 L-1,265 L-10,264 L-26,260 L-31,257 L-31,255 L-35,255 L-35,253 L-40,252 L-44,251 L-44,249 L-47,249 L-47,247 L-54,246 L-58,243 L-58,241 L-60,241 L-60,239 L-65,238 L-71,232 L-76,230 L-83,223 L-86,217 L-86,215 L-90,213 L-94,208 L-98,201 L-104,190 L-107,182 L-110,176 L-113,162 L-114,161 L-115,153 L-116,152 L-116,113 L-114,104 L-113,103 L-111,89 L-108,82 L-105,73 L-102,70 L-97,61 L-94,56 L-89,52 L-86,47 L-79,39 L-74,35 L-69,30 L-62,24 L-57,22 L-49,16 L-40,12 L-33,8 L-26,8 L-26,6 L-21,6 L-21,4 L-11,2 L-1,1 Z " fill="#FEFEFE" transform="translate(604,498)"/>
<path d="M0,0 L14,0 L26,3 L34,7 L34,9 L40,10 L40,12 L43,13 L47,20 L51,25 L55,34 L56,41 L56,55 L53,64 L51,74 L49,74 L49,77 L45,79 L40,85 L38,85 L36,89 L34,91 L27,94 L22,96 L22,98 L-7,98 L-13,95 L-13,93 L-20,91 L-20,89 L-23,88 L-28,83 L-35,74 L-38,72 L-42,62 L-42,37 L-38,27 L-34,19 L-30,14 L-28,14 L-28,12 L-23,9 L-21,6 L-14,3 L-7,3 L-7,1 Z " fill="#000000" transform="translate(827,367)"/>
<path d="M0,0 L381,0 L392,2 L393,3 L412,6 L412,8 L419,8 L426,11 L434,13 L442,17 L455,22 L460,24 L460,26 L464,27 L475,33 L490,42 L493,43 L493,45 L495,45 L500,50 L505,53 L522,70 L524,71 L527,76 L534,84 L536,85 L536,87 L538,87 L541,92 L540,94 L530,85 L530,83 L528,83 L522,75 L520,71 L511,62 L506,59 L495,51 L493,47 L488,45 L484,43 L484,41 L480,40 L478,39 L478,37 L475,37 L475,35 L468,34 L467,31 L465,31 L465,29 L461,29 L461,27 L453,26 L453,23 L444,22 L438,19 L433,15 L422,13 L422,11 L409,10 L407,9 L397,8 L397,6 L384,6 L383,5 L-9,5 L-10,6 L-34,8 L-43,10 L-50,12 L-62,16 L-64,15 L-59,12 L-52,10 L-47,10 L-47,8 L-40,8 L-40,6 L-29,5 L-17,2 L-4,1 Z " fill="#141414" transform="translate(433,229)"/>
<path d="M0,0 L6,4 L6,9 L8,9 L8,13 L10,13 L10,19 L12,19 L12,25 L14,25 L14,31 L16,31 L17,41 L18,42 L20,52 L20,432 L18,444 L17,445 L16,453 L14,453 L14,460 L10,464 L8,467 L8,461 L11,455 L12,447 L13,446 L14,435 L16,435 L15,52 L14,50 L12,36 L9,25 L8,24 L8,18 L6,18 L3,8 L2,4 L0,4 Z " fill="#171717" transform="translate(927,388)"/>
<path d="M0,0 L1,4 L-1,9 L-3,9 L-4,14 L-8,25 L-10,32 L-11,41 L-12,42 L-14,62 L-14,424 L-13,426 L-12,439 L-11,440 L-9,453 L-7,457 L-5,466 L-3,469 L-4,473 L-4,470 L-6,470 L-9,460 L-12,452 L-13,441 L-15,441 L-15,435 L-17,435 L-19,419 L-19,63 L-18,62 L-17,45 L-15,35 L-13,32 L-11,20 L-9,14 L-7,14 L-6,10 L-4,10 L-3,3 Z " fill="#0C0C0C" transform="translate(311,390)"/>
<path d="M0,0 L2,2 L4,15 L4,20 L6,20 L8,33 L9,55 L9,419 L7,434 L6,447 L3,457 L1,474 L-2,473 L-3,480 L-5,488 L-7,488 L-9,498 L-11,498 L-12,502 L-19,516 L-25,525 L-25,522 L-19,511 L-17,508 L-14,493 L-12,492 L-9,484 L-7,484 L-6,472 L-4,468 L-2,467 L0,449 L2,444 L3,439 L4,423 L6,423 L5,44 L4,41 L2,16 L0,8 Z " fill="#4C4C4C" transform="translate(1010,395)"/>
<path d="M0,0 L7,1 L7,2 L-14,8 L-26,10 L-42,10 L-42,12 L-414,12 L-417,11 L-441,9 L-450,6 L-446,5 L-439,6 L-439,8 L-37,8 L-35,7 L-20,6 L-10,3 L-2,2 Z " fill="#2F2F2F" transform="translate(847,1016)"/>
<path d="M0,0 L1,0 L0,23 L0,393 L2,406 L3,407 L4,418 L5,422 L5,429 L8,437 L9,445 L12,450 L12,455 L14,455 L14,460 L16,460 L16,465 L18,465 L18,470 L20,470 L20,474 L22,474 L22,478 L24,478 L24,482 L26,482 L26,486 L28,486 L30,492 L32,493 L32,496 L34,496 L36,499 L36,502 L38,502 L40,505 L40,508 L42,508 L43,513 L48,515 L53,524 L55,525 L55,527 L57,527 L57,529 L61,531 L63,534 L62,537 L55,530 L51,525 L46,521 L40,513 L37,506 L31,498 L31,496 L28,496 L23,485 L19,475 L15,467 L12,460 L9,452 L7,449 L1,428 L-1,416 L-3,385 L-3,23 Z " fill="#383838" transform="translate(224,421)"/>
<path d="M0,0 L1,4 L-2,27 L-2,389 L-1,401 L-1,414 L-3,410 L-4,409 L-5,389 L-6,389 L-6,35 L-4,35 L-4,26 L-2,3 Z " fill="#F6F6F5" transform="translate(224,417)"/>
<path d="M0,0 L378,0 L397,2 L403,5 L403,7 L409,7 L410,9 L401,8 L390,5 L377,3 L1,3 L-8,4 L-8,6 L-18,6 L-18,8 L-30,11 L-37,12 L-37,14 L-44,15 L-40,11 L-33,8 L-22,7 L-21,4 L-17,2 L-3,1 Z " fill="#484848" transform="translate(430,304)"/>
<path d="M0,0 L2,1 L-3,5 L-8,8 L-14,10 L-20,13 L-28,16 L-31,16 L-31,18 L-40,21 L-53,22 L-53,24 L-68,26 L-441,26 L-454,25 L-458,23 L-464,22 L-464,20 L-456,21 L-444,23 L-61,23 L-50,20 L-49,19 L-42,18 L-41,17 L-36,17 L-36,15 L-30,15 L-30,13 L-25,13 L-25,11 L-16,10 L-16,7 L-12,7 L-12,5 L-3,2 Z " fill="#797978" transform="translate(874,930)"/>
<path d="M0,0 L1,0 L2,8 L2,372 L1,388 L-1,388 L-1,396 L-2,397 L-4,406 L-7,412 L-8,412 L-8,406 L-5,400 L-4,392 L-3,391 L-2,380 L0,380 Z " fill="#999999" transform="translate(943,443)"/>
<path d="M0,0 L3,1 L3,380 L1,380 L1,392 L-1,399 L-2,399 L-2,391 L0,376 Z " fill="#BFBFBF" transform="translate(1018,438)"/>
<path d="M0,0 L2,1 L3,13 L4,14 L4,411 L3,424 L0,434 L-2,451 L-5,450 L-6,457 L-8,465 L-10,465 L-12,475 L-14,475 L-15,479 L-22,493 L-28,502 L-28,499 L-22,488 L-20,485 L-17,470 L-15,469 L-12,461 L-10,461 L-9,449 L-7,445 L-5,444 L-3,426 L-1,421 L0,416 L1,400 L3,400 L2,21 L1,18 Z " fill="#0B0B0B" transform="translate(1013,418)"/>
<path d="M0,0 L1,4 L-1,9 L-3,9 L-4,14 L-8,25 L-10,32 L-11,41 L-12,42 L-14,62 L-14,424 L-13,426 L-12,439 L-11,440 L-9,453 L-7,457 L-5,466 L-3,469 L-4,473 L-4,470 L-6,470 L-9,460 L-12,452 L-15,433 L-16,431 L-16,51 L-15,48 L-13,32 L-11,20 L-9,14 L-7,14 L-6,10 L-4,10 L-3,3 Z " fill="#868686" transform="translate(311,390)"/>
<path d="M0,0 L381,0 L392,2 L393,3 L400,4 L400,5 L392,5 L389,4 L368,3 L368,1 L4,2 L-16,4 L-43,10 L-50,12 L-62,16 L-64,15 L-59,12 L-52,10 L-47,10 L-47,8 L-40,8 L-40,6 L-29,5 L-17,2 L-4,1 Z " fill="#737373" transform="translate(433,229)"/>
<path d="M0,0 L3,3 L7,12 L7,16 L9,16 L12,27 L15,34 L17,47 L19,57 L19,427 L18,427 L17,63 L15,52 L14,50 L12,36 L9,25 L8,24 L8,18 L6,18 L3,8 L2,4 L0,4 Z " fill="#484848" transform="translate(927,388)"/>
<path d="M0,0 L1,4 L-2,27 L-2,389 L-1,401 L-1,414 L-3,410 L-4,409 L-4,26 L-2,3 Z " fill="#ADADAC" transform="translate(224,417)"/>
<path d="M0,0 L376,0 L394,3 L394,4 L365,3 L364,2 L-7,2 L-7,1 Z " fill="#C5C5C5" transform="translate(431,306)"/>
<path d="M0,0 L12,0 L29,2 L409,3 L409,4 L21,4 L7,3 L7,1 L0,1 Z " fill="#040404" transform="translate(401,1021)"/>
<path d="M0,0 L11,1 L11,3 L25,3 L44,5 L408,6 L408,7 L36,7 L33,6 L9,4 L0,1 Z " fill="#777776" transform="translate(397,1021)"/>
<path d="M0,0 L2,0 L1,6 L-1,6 L-2,10 L-6,18 L-10,35 L-12,40 L-14,40 L-15,48 L-17,48 L-17,54 L-19,63 L-20,68 L-21,87 L-21,112 L-20,130 L-15,150 L-14,151 L-13,164 L-11,164 L-8,176 L-9,180 L-10,174 L-13,174 L-17,156 L-20,148 L-23,126 L-24,123 L-24,73 L-22,73 L-22,64 L-20,51 L-19,50 L-17,40 L-15,40 L-14,32 L-12,26 L-10,26 L-9,20 L-4,7 L-1,4 Z " fill="#383838" transform="translate(437,531)"/>
<path d="M0,0 L1,2 L0,14 L-1,17 L-1,397 L0,399 L0,407 L-1,407 L-1,401 L-3,401 L-3,11 L-1,1 Z " fill="#3A3A3A" transform="translate(297,424)"/>
<path d="M0,0 L11,1 L11,3 L18,3 L25,6 L33,8 L41,12 L54,17 L59,19 L59,21 L63,22 L74,28 L89,37 L92,38 L92,40 L94,40 L99,45 L104,48 L121,65 L123,66 L126,71 L133,79 L135,80 L135,82 L137,82 L140,87 L139,89 L129,80 L129,78 L127,78 L121,70 L119,66 L110,57 L105,54 L94,46 L92,42 L87,40 L83,38 L83,36 L79,35 L77,34 L77,32 L74,32 L74,30 L67,29 L66,26 L64,26 L64,24 L60,24 L60,22 L52,21 L52,18 L43,17 L37,14 L32,10 L21,8 L21,6 L8,5 L6,4 L-4,3 L-3,1 Z " fill="#474747" transform="translate(834,234)"/>
<path d="M0,0 L15,1 L18,2 L390,3 L390,1 L406,1 L406,2 L391,4 L13,4 L13,2 L1,2 Z " fill="#C1C1C1" transform="translate(415,1025)"/>
<path d="M0,0 L50,0 L62,3 L80,6 L86,9 L96,12 L107,16 L117,20 L117,22 L121,23 L119,24 L110,20 L101,17 L95,16 L94,14 L82,12 L81,11 L74,10 L73,9 L66,8 L66,6 L58,5 L37,4 L36,3 L6,3 L-8,4 L-18,5 L-18,7 L-26,8 L-34,11 L-46,14 L-48,14 L-48,12 L-36,9 L-30,6 L-20,4 L-14,2 Z " fill="#282828" transform="translate(595,423)"/>
<path d="M0,0 L373,0 L373,1 L9,2 L5,3 L-8,3 L-8,2 L-1,1 Z " fill="#DADADA" transform="translate(424,228)"/>
<path d="M0,0 L1,0 L5,26 L7,30 L9,37 L10,45 L13,50 L13,55 L15,55 L15,60 L17,60 L17,65 L19,65 L19,70 L21,70 L21,74 L23,74 L23,78 L25,78 L25,82 L27,82 L27,86 L29,86 L31,92 L33,93 L33,96 L35,96 L37,99 L37,102 L39,102 L41,105 L41,108 L43,108 L44,113 L49,115 L54,124 L56,125 L56,127 L58,127 L58,129 L62,131 L64,134 L63,137 L56,130 L52,125 L47,121 L41,113 L38,106 L32,98 L32,96 L29,96 L24,85 L20,75 L16,67 L13,60 L10,52 L8,49 L2,28 L0,16 Z " fill="#585858" transform="translate(223,821)"/>
<path d="M0,0 L36,0 L49,2 L49,3 L37,3 L27,2 L5,2 L4,3 L-6,4 L-8,5 L-16,5 L-16,7 L-21,7 L-21,9 L-30,11 L-36,15 L-44,18 L-47,21 L-52,24 L-60,28 L-67,34 L-72,40 L-77,45 L-82,50 L-85,55 L-88,57 L-87,52 L-79,44 L-75,39 L-70,34 L-67,31 L-65,27 L-48,15 L-39,13 L-39,11 L-32,9 L-30,7 L-20,4 L-19,3 L-3,1 Z " fill="#363636" transform="translate(599,497)"/>
<path d="M0,0 L14,0 L26,3 L34,7 L34,9 L40,10 L40,12 L43,13 L47,20 L51,25 L55,34 L56,41 L56,55 L53,64 L51,74 L49,74 L49,77 L47,76 L50,67 L52,60 L52,37 L47,28 L44,21 L33,11 L28,7 L23,6 L23,4 L17,3 L-3,3 L-10,6 L-16,8 L-22,11 L-27,14 L-28,12 L-23,9 L-21,6 L-14,3 L-7,3 L-7,1 Z " fill="#2C2C2C" transform="translate(827,367)"/>
<path d="M0,0 L12,3 L12,5 L19,5 L32,9 L41,11 L42,12 L54,14 L68,15 L98,16 L98,14 L111,12 L125,11 L147,6 L152,5 L150,8 L144,10 L129,11 L129,14 L114,16 L108,16 L108,18 L59,18 L52,16 L37,14 L30,11 L22,9 L11,6 L4,4 L4,2 L0,2 Z " fill="#B5B5B5" transform="translate(537,821)"/>
<path d="M0,0 L2,3 L5,9 L6,16 L9,24 L11,37 L13,49 L14,61 L14,94 L13,108 L11,108 L11,115 L10,116 L7,133 L5,134 L5,122 L7,122 L7,112 L9,106 L10,99 L10,45 L8,36 L8,29 L6,29 L5,20 L1,14 L0,8 Z " fill="#2D2D2D" transform="translate(813,555)"/>
<path d="M0,0 L5,1 L11,6 L16,9 L23,15 L24,20 L28,21 L35,28 L42,36 L45,39 L45,41 L47,41 L47,43 L49,43 L52,48 L61,63 L65,68 L69,78 L73,87 L75,94 L72,91 L64,74 L57,62 L52,53 L48,47 L41,41 L34,31 L28,27 L22,20 L21,16 L16,15 L8,8 L0,3 Z " fill="#565655" transform="translate(738,461)"/>
<path d="M0,0 L2,1 L-9,10 L-18,15 L-28,24 L-34,25 L-36,29 L-41,33 L-43,33 L-45,37 L-53,44 L-57,46 L-58,50 L-64,55 L-70,63 L-76,70 L-80,77 L-82,78 L-80,73 L-76,65 L-74,65 L-74,63 L-72,63 L-71,59 L-68,55 L-66,55 L-65,51 L-47,33 L-41,30 L-38,25 L-33,21 L-25,17 L-22,14 L-17,11 L-12,7 Z " fill="#2D2D2C" transform="translate(340,257)"/>
<path d="M0,0 L2,1 L7,19 L8,20 L8,62 L6,77 L4,77 L4,82 L2,82 L1,87 L-1,87 L-1,92 L-3,98 L-5,98 L-4,90 L-2,90 L-1,85 L1,78 L2,68 L4,68 L5,53 L5,32 L2,19 Z " fill="#2C2C2C" transform="translate(747,586)"/>
<path d="M0,0 L10,3 L10,5 L13,5 L13,7 L18,8 L22,9 L22,11 L26,11 L26,13 L30,14 L39,17 L47,19 L56,20 L90,20 L105,17 L106,15 L113,15 L113,13 L123,11 L129,10 L127,12 L106,19 L94,22 L49,22 L42,21 L33,18 L22,15 L22,13 L17,13 L14,10 L10,9 L10,7 L6,7 L6,4 L0,3 Z " fill="#494949" transform="translate(547,742)"/>
<path d="M0,0 L1,0 L1,8 L-1,15 L-2,18 L-2,57 L-1,58 L0,66 L1,67 L2,74 L5,82 L8,90 L9,95 L6,91 L6,88 L3,87 L0,79 L-3,71 L-4,62 L-5,60 L-5,11 L-4,10 L-3,2 Z " fill="#505050" transform="translate(491,593)"/>
<path d="M0,0 L1,4 L-2,14 L-4,31 L-7,30 L-8,37 L-10,45 L-12,45 L-14,55 L-16,55 L-17,59 L-24,73 L-30,82 L-30,79 L-24,68 L-22,65 L-19,50 L-17,49 L-14,41 L-12,41 L-11,29 L-9,25 L-5,24 L-4,13 Z " fill="#3B3B3B" transform="translate(1015,838)"/>
<path d="M0,0 L2,3 L4,13 L5,14 L6,26 L7,27 L7,73 L5,73 L5,84 L1,98 L0,98 L0,90 L1,89 L2,82 L4,82 L4,35 L2,15 L0,8 Z " fill="#CCCCCB" transform="translate(822,581)"/>
<path d="M0,0 Z M-1,1 L0,4 L-3,7 L-4,10 L-10,13 L-13,16 L-14,19 L-16,19 L-16,21 L-27,29 L-35,37 L-44,42 L-56,51 L-66,56 L-68,56 L-68,54 L-54,47 L-52,44 L-42,39 L-37,34 L-31,27 L-27,25 L-23,23 L-8,8 L-5,5 L-3,5 Z " fill="#6C6C6B" transform="translate(963,946)"/>
<path d="M0,0 L2,0 L1,6 L-1,6 L-2,10 L-6,18 L-10,35 L-12,40 L-14,40 L-15,48 L-17,48 L-17,54 L-19,63 L-21,72 L-22,72 L-22,64 L-20,51 L-19,50 L-17,40 L-15,40 L-14,32 L-12,26 L-10,26 L-9,20 L-4,7 L-1,4 Z " fill="#1E1E1E" transform="translate(437,531)"/>
<path d="M0,0 L50,0 L58,2 L58,3 L46,3 L46,1 L4,2 L-12,5 L-18,5 L-18,7 L-26,8 L-34,11 L-46,14 L-48,14 L-48,12 L-36,9 L-30,6 L-20,4 L-14,2 Z " fill="#7F7F7F" transform="translate(595,423)"/>
<path d="M0,0 L14,0 L26,3 L34,7 L34,9 L40,10 L40,12 L43,13 L45,19 L40,14 L35,11 L31,10 L28,7 L23,6 L23,4 L17,3 L-3,3 L-10,6 L-16,8 L-22,11 L-27,14 L-28,12 L-23,9 L-21,6 L-14,3 L-7,3 L-7,1 Z " fill="#5C5C5C" transform="translate(827,367)"/>
<path d="M0,0 L6,0 L14,5 L22,9 L31,12 L39,16 L48,18 L51,19 L56,19 L57,22 L48,21 L47,20 L38,18 L29,16 L22,14 L22,12 L18,12 L18,10 L14,10 L14,8 L10,8 L10,6 L4,4 Z " fill="#373736" transform="translate(337,997)"/>
<path d="M0,0 L2,1 L8,13 L11,18 L16,24 L20,28 L23,34 L29,40 L34,42 L41,48 L44,49 L44,51 L46,51 L47,54 L42,52 L34,45 L28,42 L17,31 L10,23 L8,18 L2,10 L0,6 Z " fill="#555555" transform="translate(500,688)"/>
<path d="M0,0 L12,1 L28,7 L36,10 L47,17 L57,27 L54,27 L50,23 L42,19 L34,13 L25,10 L20,8 L20,6 L14,6 L14,4 L0,2 Z " fill="#2B2B2B" transform="translate(648,500)"/>
<path d="M0,0 L6,2 L10,6 L13,11 L17,15 L19,20 L25,23 L27,27 L31,28 L34,33 L40,38 L39,40 L34,37 L28,30 L23,27 L12,16 L9,11 L0,2 Z M40,40 L42,41 Z " fill="#787878" transform="translate(454,756)"/>
<path d="M0,0 L3,1 L-2,4 L-7,9 L-15,13 L-18,13 L-18,16 L-36,23 L-46,27 L-57,30 L-59,29 L-53,26 L-47,24 L-33,19 L-27,16 L-23,16 L-23,14 L-19,14 L-19,12 L-14,9 L-7,4 Z " fill="#2B2B2B" transform="translate(913,987)"/>
<path d="M0,0 L4,1 L2,3 L-4,5 L-19,7 L-21,8 L-42,11 L-46,12 L-84,12 L-88,10 L-50,11 L-50,9 L-37,7 L-23,6 L-1,1 Z " fill="#5C5C5C" transform="translate(685,826)"/>
<path d="M0,0 L2,1 L-1,4 L-3,4 L-3,7 L-5,7 L-7,11 L-16,20 L-24,27 L-28,31 L-33,40 L-37,43 L-35,37 L-33,36 L-28,27 L-26,27 L-26,25 L-21,21 L-18,16 L-14,12 L-11,12 L-10,7 L-3,1 Z " fill="#363636" transform="translate(484,473)"/>
<path d="M0,0 L3,1 L-7,6 L-9,6 L-11,10 L-20,17 L-25,21 L-30,27 L-35,32 L-40,37 L-43,42 L-46,44 L-45,39 L-37,31 L-33,26 L-28,21 L-25,18 L-23,14 L-6,2 Z " fill="#1C1C1C" transform="translate(557,510)"/>
<path d="M0,0 L2,1 L-2,3 Z M-3,3 L-3,6 L-6,9 L-13,12 L-18,14 L-18,16 L-47,16 L-53,13 L-51,12 L-44,13 L-24,13 L-23,12 L-18,12 L-18,10 L-11,8 L-6,4 Z " fill="#50504F" transform="translate(867,449)"/>
<path d="M0,0 L4,1 L10,8 L6,6 L0,1 Z M10,8 L14,10 L18,14 L18,16 L21,17 L24,24 L28,32 L34,43 L33,47 L31,43 L31,40 L29,40 L27,36 L27,33 L25,33 L21,25 L19,21 L17,21 L14,16 L14,14 L11,14 Z " fill="#A9A9A9" transform="translate(708,531)"/>
<path d="M0,0 L5,1 L14,3 L18,7 L26,10 L34,14 L38,19 L41,22 L38,22 L35,21 L35,19 L30,17 L22,12 L10,6 L3,3 Z " fill="#525252" transform="translate(842,313)"/>
<path d="M0,0 L4,2 L9,5 L26,22 L28,23 L31,28 L38,36 L40,37 L40,39 L42,39 L45,44 L44,46 L34,37 L34,35 L32,35 L26,27 L24,23 L8,7 L1,3 Z " fill="#767675" transform="translate(929,277)"/>
<path d="M0,0 L2,1 L0,3 L-2,8 L-6,14 L-8,18 L-9,29 L-9,43 L-7,54 L-6,59 L-8,58 L-12,48 L-12,23 L-8,13 L-4,5 Z " fill="#595958" transform="translate(797,381)"/>
<path d="M0,0 L1,4 L0,5 L-3,27 L-5,27 L-4,77 L-3,80 L-3,88 L-4,88 L-6,82 L-6,23 L-5,22 L-4,13 L-3,12 L-2,2 L0,2 Z " fill="#C1C1C0" transform="translate(418,577)"/>
<path d="M0,0 L2,0 L2,2 L4,2 L7,7 L16,22 L20,27 L24,37 L28,46 L30,53 L27,50 L19,33 L12,21 L7,12 L3,6 L0,1 Z " fill="#555554" transform="translate(783,502)"/>
<path d="M0,0 L0,3 L-9,12 L-11,17 L-17,22 L-23,30 L-29,37 L-33,44 L-35,45 L-33,40 L-29,32 L-27,32 L-27,30 L-25,30 L-24,26 L-21,22 L-19,22 L-18,18 Z " fill="#9C9C9B" transform="translate(293,290)"/>
<path d="M0,0 L2,1 L0,6 L-7,16 L-10,17 L-11,20 L-16,23 L-17,26 L-19,26 L-19,28 L-21,28 L-21,30 L-23,30 L-23,32 L-30,37 L-32,40 L-35,40 L-35,42 L-37,41 L-32,36 L-25,30 L-18,22 L-11,15 L-7,10 L-2,5 Z " fill="#6E6E6E" transform="translate(784,753)"/>
<path d="M0,0 L1,0 L5,26 L7,30 L9,37 L10,51 L8,49 L2,28 L0,16 Z " fill="#6D6D6C" transform="translate(223,821)"/>
<path d="M0,0 L2,1 L2,3 L4,3 L4,7 L6,7 L9,16 L17,28 L21,33 L23,38 L19,36 L16,32 L16,29 L14,29 L6,18 L0,6 Z " fill="#575757" transform="translate(308,863)"/>
<path d="M0,0 L4,1 L-19,9 L-31,12 L-72,12 L-73,10 L-35,10 L-20,7 L-19,5 L-12,5 L-12,3 L-2,1 Z " fill="#878787" transform="translate(672,752)"/>
<path d="M0,0 L2,3 L4,10 L7,16 L8,29 L10,29 L13,41 L12,45 L11,39 L8,39 L4,21 L1,13 Z " fill="#1F1F1F" transform="translate(416,666)"/>
<path d="M0,0 L2,3 L5,9 L6,16 L9,24 L11,37 L12,41 L12,49 L10,45 L8,36 L8,29 L6,29 L5,20 L1,14 L0,8 Z " fill="#4A4A4A" transform="translate(813,555)"/>
<path d="M0,0 L4,2 L15,8 L20,9 L20,11 L23,11 L23,13 L28,13 L28,15 L32,15 L32,17 L37,17 L49,22 L52,24 L44,24 L35,19 L29,18 L29,16 L25,15 L18,11 L6,7 L6,5 L3,5 Z " fill="#B2B2B2" transform="translate(358,926)"/>
<path d="M0,0 L7,1 L7,2 L-14,8 L-26,10 L-38,10 L-35,7 L-20,6 L-10,3 L-2,2 Z " fill="#393939" transform="translate(847,1016)"/>
<path d="M0,0 L1,4 L-1,9 L-8,18 L-12,24 L-15,31 L-20,36 L-25,37 L-27,41 L-27,38 L-20,30 L-18,27 L-15,27 L-13,22 L-9,16 L-8,12 L-4,9 Z " fill="#818180" transform="translate(741,685)"/>
<path d="M0,0 L1,2 L-4,10 L-6,10 L-7,15 L-11,21 L-14,30 L-16,36 L-18,36 L-18,41 L-21,50 L-22,46 L-21,39 L-19,39 L-18,34 L-17,29 L-15,29 L-15,24 L-13,24 L-13,19 L-11,19 L-11,15 L-9,15 L-9,11 L-7,11 L-7,9 L-5,9 L-5,5 L-3,5 L-2,1 Z " fill="#C3C3C3" transform="translate(443,521)"/>
<path d="M0,0 L4,1 L14,11 L19,15 L25,18 L30,22 L34,26 L37,29 L33,29 L33,27 L29,25 L17,16 L12,12 L9,11 L9,9 L7,9 L7,7 L5,7 L5,5 L3,5 L3,3 L1,3 Z " fill="#777777" transform="translate(293,964)"/>
<path d="M0,0 L11,1 L11,3 L18,3 L25,6 L33,8 L41,12 L39,13 L33,11 L29,9 L21,8 L21,6 L8,5 L6,4 L-4,3 L-3,1 Z " fill="#424241" transform="translate(834,234)"/>
<path d="M0,0 L2,1 L-3,5 L-8,8 L-14,10 L-20,13 L-35,18 L-41,20 L-50,21 L-49,19 L-42,18 L-41,17 L-36,17 L-36,15 L-30,15 L-30,13 L-25,13 L-25,11 L-16,10 L-16,7 L-12,7 L-12,5 L-3,2 Z " fill="#BDBDBD" transform="translate(874,930)"/>
<path d="M0,0 L1,2 L-4,12 L-15,25 L-20,28 L-26,33 L-27,31 L-25,31 L-25,29 L-23,29 L-23,27 L-21,27 L-19,23 L-16,19 L-12,18 L-9,13 L-2,4 Z " fill="#434342" transform="translate(921,883)"/>
<path d="M0,0 L2,3 L4,13 L5,14 L6,30 L6,68 L5,68 L4,35 L2,15 L0,8 Z " fill="#A3A3A3" transform="translate(822,581)"/>
<path d="M0,0 L3,3 L7,12 L7,16 L9,16 L12,27 L15,34 L16,52 L14,50 L12,36 L9,25 L8,24 L8,18 L6,18 L3,8 L2,4 L0,4 Z " fill="#A1A1A1" transform="translate(927,388)"/>
<path d="M0,0 L2,1 L0,3 L-3,3 L-3,5 L-21,13 L-32,16 L-30,13 L-28,13 L-28,11 L-18,7 L-9,4 Z " fill="#5A5A59" transform="translate(722,810)"/>
<path d="M0,0 L3,1 L3,6 L5,6 L5,10 L7,10 L7,16 L9,16 L9,22 L11,22 L11,28 L13,28 L14,38 L15,39 L15,50 L14,50 L12,41 L11,31 L8,24 L6,18 L6,13 L4,13 L0,3 Z " fill="#212121" transform="translate(930,391)"/>
<path d="M0,0 L1,0 L1,10 L-1,10 L-1,17 L-2,18 L-5,35 L-7,36 L-7,24 L-5,24 L-5,14 L-2,7 Z " fill="#1D1D1D" transform="translate(825,653)"/>
<path d="M0,0 L5,5 L12,11 L12,13 L16,15 L21,20 L26,23 L27,25 L19,23 L13,16 L5,9 L0,2 Z " fill="#4B4B4B" transform="translate(331,901)"/>
<path d="M0,0 L7,6 L10,13 L15,20 L18,30 L20,30 L20,34 L17,34 L17,29 L15,29 L8,15 L6,13 L6,7 L1,5 Z " fill="#626262" transform="translate(974,323)"/>
<path d="M0,0 L36,0 L49,2 L49,3 L37,3 L27,2 L5,2 L4,3 L-4,3 L-3,1 Z " fill="#979797" transform="translate(599,497)"/>
<path d="M0,0 L2,1 L4,5 L4,10 L6,10 L6,15 L8,15 L8,20 L10,20 L10,25 L12,25 L12,29 L14,29 L14,33 L16,33 L16,37 L18,37 L17,40 L17,38 L15,38 L9,27 L5,17 L1,7 Z " fill="#3B3B3B" transform="translate(232,866)"/>
<path d="M0,0 L3,3 L4,10 L4,24 L1,33 L-1,43 L-3,43 L-3,46 L-5,45 L-2,36 L0,29 L1,27 L2,4 L0,4 Z " fill="#7A7A7A" transform="translate(879,398)"/>
<path d="M0,0 L4,2 L14,9 L18,11 L22,17 L27,24 L26,26 L19,19 L14,14 L9,9 L5,5 L2,4 Z " fill="#6D6D6D" transform="translate(883,336)"/>
<path d="M0,0 L1,0 L1,8 L-1,15 L-2,18 L-2,57 L-1,58 L-1,66 L-2,66 L-3,59 L-4,58 L-4,16 Z " fill="#A3A3A3" transform="translate(491,593)"/>
<path d="M0,0 L19,0 L19,1 L4,2 L-3,5 L-9,7 L-15,10 L-20,13 L-21,11 L-16,8 L-14,5 L-7,2 L0,2 Z " fill="#3D3D3D" transform="translate(820,368)"/>
<path d="M0,0 L12,3 L12,5 L19,5 L32,9 L41,11 L42,13 L33,12 L22,9 L11,6 L4,4 L4,2 L0,2 Z " fill="#828282" transform="translate(537,821)"/>
<path d="M0,0 L1,4 L-1,9 L-3,9 L-4,14 L-7,21 L-9,21 L-10,28 L-12,29 L-11,20 L-9,14 L-7,14 L-6,10 L-4,10 L-3,3 Z " fill="#404040" transform="translate(311,390)"/>
<path d="M0,0 L4,0 L4,2 L-6,2 L-6,4 L-18,7 L-25,8 L-25,10 L-32,11 L-28,7 L-21,4 L-10,2 Z " fill="#909090" transform="translate(418,308)"/>
<path d="M0,0 L2,4 L3,5 L5,16 L5,47 L3,50 L3,21 L0,8 Z " fill="#767675" transform="translate(749,597)"/>
<path d="M0,0 L10,3 L10,5 L13,5 L13,7 L18,8 L22,9 L22,11 L26,11 L26,13 L29,14 L24,13 L14,10 L10,9 L10,7 L6,7 L6,4 L0,3 Z " fill="#979796" transform="translate(547,742)"/>
<path d="M0,0 L4,2 L11,10 L15,21 L17,26 L15,26 L15,23 L13,23 L13,20 L11,20 L11,17 L9,17 L7,10 L1,4 Z " fill="#4D4D4C" transform="translate(910,362)"/>
<path d="M0,0 L1,4 L-1,16 L-5,32 L-6,37 L-7,37 L-6,19 L-2,10 L-1,1 Z " fill="#303030" transform="translate(1016,825)"/>
<path d="M0,0 L2,1 L-6,8 L-13,14 L-15,14 L-15,16 L-24,22 L-26,21 L-21,16 L-14,12 L-10,7 L-2,2 Z " fill="#3C3C3C" transform="translate(758,782)"/>
<path d="M0,0 L6,2 L10,6 L13,11 L17,15 L16,18 L0,2 Z " fill="#202020" transform="translate(454,756)"/>
<path d="M0,0 L1,3 L-4,8 L-12,18 L-14,19 L-19,28 L-23,31 L-21,25 L-19,24 L-14,15 L-12,15 L-12,13 L-7,9 L-4,4 Z " fill="#8D8D8D" transform="translate(470,485)"/>
<path d="M0,0 L2,2 L4,15 L4,20 L6,20 L8,33 L8,41 L6,37 L5,36 L4,24 L3,23 L0,8 Z " fill="#676767" transform="translate(1010,395)"/>
<path d="M0,0 L1,0 L1,12 L0,13 L-2,23 L-3,26 L-5,26 L-5,31 L-7,37 L-9,37 L-8,29 L-6,29 L-5,24 L-3,17 L-2,7 L0,7 Z " fill="#929292" transform="translate(751,647)"/>
<path d="M0,0 L7,2 L9,3 L9,5 L24,7 L38,7 L39,6 L45,6 L45,7 L39,9 L19,9 L10,7 L3,4 L3,2 L0,1 Z " fill="#141414" transform="translate(804,454)"/>
<path d="M0,0 L6,1 L16,4 L27,9 L30,10 L30,12 L34,13 L32,14 L23,10 L14,7 L8,6 L7,4 L0,1 Z " fill="#444444" transform="translate(682,433)"/>
<path d="M0,0 L1,4 L-1,11 L-2,20 L-3,21 L-5,41 L-6,41 L-5,15 Z " fill="#ABABAB" transform="translate(302,411)"/>
<path d="M0,0 L5,1 L5,3 L9,4 L21,10 L30,13 L30,15 L33,16 L28,15 L22,14 L22,12 L18,12 L18,10 L14,10 L14,8 L10,8 L10,6 L4,4 Z " fill="#939392" transform="translate(337,997)"/>
<path d="M0,0 L2,1 L-4,6 L-9,12 L-14,17 L-19,22 L-22,27 L-25,29 L-24,24 L-16,16 L-12,11 L-7,6 Z " fill="#818181" transform="translate(536,525)"/>
<path d="M0,0 L5,1 L13,8 L17,12 L17,14 L19,14 L18,16 L13,13 L8,8 L0,3 Z " fill="#1B1B1B" transform="translate(738,461)"/>
<path d="M0,0 L2,1 L-2,6 L-14,12 L-16,14 L-20,13 L-14,9 L-10,7 L-8,3 Z " fill="#333333" transform="translate(521,447)"/>
<path d="M0,0 L5,2 L10,11 L12,12 L12,14 L14,14 L14,16 L18,18 L20,21 L19,24 L12,17 L4,7 L4,4 L2,4 Z " fill="#3F3F3F" transform="translate(267,934)"/>
<path d="M0,0 L4,1 L10,8 L6,6 L0,1 Z M10,8 L14,10 L18,14 L18,16 L21,17 L22,23 L18,19 L15,15 L11,14 Z " fill="#565656" transform="translate(708,531)"/>
<path d="M0,0 L0,3 L-5,9 L-7,9 L-8,13 L-14,21 L-16,23 L-18,30 L-22,32 L-19,23 L-14,18 L-9,11 L-7,7 L-2,2 Z " fill="#2F2F2F" transform="translate(463,496)"/>
<path d="M0,0 L1,2 L-3,16 L-6,20 L-8,20 L-8,26 L-11,27 L-10,21 L-8,16 L-6,16 L-4,8 Z " fill="#1D1D1D" transform="translate(246,355)"/>
<path d="M0,0 L2,1 L-3,8 L-8,12 L-10,12 L-12,16 L-20,23 L-24,25 L-18,18 L-13,12 L-7,8 L-5,4 Z " fill="#565656" transform="translate(307,278)"/>
<path d="M0,0 L2,1 L-6,16 L-12,31 L-14,31 L-14,26 L-12,26 L-12,22 L-10,22 L-10,17 L-8,17 L-8,13 L-6,13 L-4,7 L-2,2 L0,2 Z " fill="#BEBEBD" transform="translate(252,340)"/>
<path d="M0,0 L5,1 L8,3 L8,5 L12,6 L17,9 L27,14 L28,16 L24,16 L24,14 L20,14 L20,12 L16,12 L16,10 L12,9 L9,8 L9,6 L4,4 Z " fill="#AAAAA9" transform="translate(508,805)"/>
<path d="M0,0 L2,1 L-1,4 L-3,4 L-3,7 L-5,7 L-5,9 L-11,12 L-14,12 L-15,15 L-19,14 L-13,9 L-11,9 L-11,7 L-6,4 Z " fill="#323232" transform="translate(705,733)"/>
<path d="M0,0 L8,0 L8,1 L2,1 L2,3 L-6,4 L-14,7 L-26,10 L-28,10 L-28,8 L-16,5 L-10,2 Z " fill="#474747" transform="translate(575,427)"/>
<path d="M0,0 L2,1 L-1,4 L-3,4 L-3,7 L-8,10 L-13,14 L-15,14 L-15,16 L-17,16 L-15,11 L-10,6 L-1,1 Z " fill="#575757" transform="translate(358,333)"/>
<path d="M0,0 L12,0 L29,2 L29,4 L7,3 L7,1 L0,1 Z " fill="#212121" transform="translate(401,1021)"/>
<path d="M0,0 L1,2 L0,7 L-2,7 L-3,11 L-10,25 L-16,34 L-16,31 L-10,20 L-2,4 Z " fill="#B7B7B7" transform="translate(1001,886)"/>
<path d="M0,0 L5,1 L10,2 L10,4 L15,5 L18,7 L25,8 L31,11 L29,12 L22,11 L22,9 L17,9 L8,5 L0,1 Z " fill="#3B3B3B" transform="translate(527,815)"/>
<path d="M0,0 L9,1 L11,2 L31,3 L31,1 L38,0 L37,2 L35,2 L35,4 L6,4 L0,1 Z " fill="#9F9F9E" transform="translate(814,461)"/>
<path d="M0,0 L4,1 L2,2 L-4,2 L-4,4 L-17,9 L-25,13 L-28,13 L-23,9 L-20,9 L-20,7 L-15,7 L-15,5 L-11,5 L-11,3 Z " fill="#B4B4B3" transform="translate(551,433)"/>
<path d="M0,0 L4,0 L3,3 L-4,3 L-4,5 L-12,6 L-13,7 L-28,8 L-25,6 L-16,5 Z " fill="#B4B4B4" transform="translate(849,1018)"/>
<path d="M0,0 L8,0 L6,2 L-3,4 L-10,6 L-22,10 L-24,9 L-19,6 L-12,4 L-7,4 L-7,2 L0,2 Z " fill="#7B7B7B" transform="translate(393,235)"/>
<path d="M0,0 L2,1 L7,19 L8,20 L8,29 L6,27 L4,16 L1,9 Z " fill="#272727" transform="translate(747,586)"/>
<path d="M0,0 L5,5 L10,11 L16,16 L16,18 L21,19 L23,21 L18,21 L18,19 L15,19 L15,17 L12,17 L5,9 L1,6 Z " fill="#969695" transform="translate(791,440)"/>
<path d="M0,0 L2,1 L-5,5 L-17,14 L-27,19 L-29,19 L-29,17 L-15,10 L-13,7 L-2,1 Z " fill="#919190" transform="translate(924,983)"/>
<path d="M0,0 L5,2 L13,6 L13,8 L19,8 L24,11 L22,12 L16,11 L16,9 L12,9 L12,7 L5,6 L0,3 Z " fill="#343434" transform="translate(374,936)"/>
<path d="M0,0 L1,0 L1,8 L-4,32 L-5,32 L-5,24 L-3,11 L-2,10 Z " fill="#5B5B5B" transform="translate(420,571)"/>
<path d="M0,0 L4,2 L14,10 L14,12 L16,12 L19,17 L18,19 L8,10 L8,8 L6,8 Z " fill="#1F1F1F" transform="translate(955,304)"/>
<path d="M0,0 L2,1 L3,8 L6,16 L9,24 L10,29 L7,25 L7,22 L4,21 L1,11 Z " fill="#939393" transform="translate(490,659)"/>
<path d="M0,0 L4,1 L1,3 L-3,3 L-3,5 L-8,5 L-8,7 L-21,10 L-25,9 L-6,3 Z " fill="#A2A2A1" transform="translate(879,1008)"/>
<path d="M0,0 L1,2 L0,5 L-2,5 L-4,9 L-9,15 L-12,21 L-14,21 L-14,23 L-19,26 L-17,21 L-12,17 L-9,11 L-4,6 L-3,3 L-1,3 Z " fill="#868686" transform="translate(983,920)"/>
<path d="M0,0 L1,3 L-2,6 L-8,22 L-10,28 L-11,24 L-10,17 L-8,13 L-6,13 L-5,8 L-2,1 Z " fill="#343434" transform="translate(502,565)"/>
<path d="M0,0 L4,1 L-8,6 L-20,14 L-22,13 L-17,8 L-10,3 L-2,1 Z " fill="#454545" transform="translate(382,319)"/>
<path d="M0,0 L2,3 L5,9 L6,20 L3,18 L1,14 L0,8 Z " fill="#404040" transform="translate(813,555)"/>
<path d="M0,0 L1,3 L-6,14 L-11,23 L-13,23 L-14,27 L-15,25 L-14,22 L-12,22 L-10,17 L-5,9 L-3,2 Z " fill="#3E3E3E" transform="translate(993,900)"/>
<path d="M0,0 L2,1 L8,13 L11,18 L10,20 L2,10 L0,6 Z " fill="#6C6C6B" transform="translate(500,688)"/>
<path d="M0,0 L1,4 L0,14 L-1,14 L-2,19 L-4,19 L-5,24 L-6,28 L-8,28 L-6,20 L-4,16 Z " fill="#B2B2B2" transform="translate(821,679)"/>
<path d="M0,0 L2,3 L4,10 L4,17 L6,17 L7,30 L5,27 L2,15 L1,13 Z " fill="#5F5F5F" transform="translate(416,666)"/>
<path d="M0,0 L2,1 L-6,10 L-11,15 L-14,17 L-12,13 L-9,7 L-6,4 L-1,1 Z " fill="#1E1E1E" transform="translate(806,376)"/>
<path d="M0,0 L1,4 L-4,15 L-9,26 L-11,25 L-7,17 L-3,4 L0,3 Z " fill="#9C9C9B" transform="translate(812,707)"/>
<path d="M0,0 L12,0 L18,3 L18,5 L24,5 L25,7 L16,6 L9,3 L8,2 L0,1 Z " fill="#161615" transform="translate(815,306)"/>
<path d="M0,0 L1,4 L-2,14 L-4,31 L-7,30 L-6,24 L-2,6 Z " fill="#818181" transform="translate(1015,838)"/>
<path d="M0,0 L4,1 L2,3 L-17,8 L-19,7 L-12,4 L-5,1 Z " fill="#232323" transform="translate(688,823)"/>
<path d="M0,0 L1,4 L-7,12 L-13,13 L-8,8 L-3,2 Z " fill="#5C5C5C" transform="translate(935,971)"/>
<path d="M0,0 L2,1 L-3,5 L-8,8 L-14,10 L-20,13 L-22,12 L-19,10 L-16,10 L-16,7 L-12,7 L-12,5 L-3,2 Z " fill="#888887" transform="translate(874,930)"/>
<path d="M0,0 L2,1 L-2,4 L-7,6 L-15,8 L-23,8 L-23,7 L-15,5 Z " fill="#212121" transform="translate(668,755)"/>
<path d="M0,0 L1,0 L2,27 L3,30 L3,38 L2,38 L0,32 Z " fill="#B4B4B4" transform="translate(412,627)"/>
<path d="M0,0 Z M-3,1 L0,2 L-4,7 L-9,12 L-16,18 L-14,14 L-8,6 Z " fill="#212121" transform="translate(530,529)"/>
<path d="M0,0 L12,1 L24,6 L24,8 L20,8 L20,6 L14,6 L14,4 L0,2 Z " fill="#797978" transform="translate(648,500)"/>
<path d="M0,0 L1,0 L1,6 L-2,7 L-4,12 L-7,17 L-10,19 L-8,13 Z " fill="#454545" transform="translate(257,335)"/>
<path d="M0,0 L14,0 L29,3 L29,4 L9,3 L8,2 L0,1 Z " fill="#1E1E1E" transform="translate(808,232)"/>
<path d="M0,0 L2,1 L-9,10 L-17,12 L-12,7 Z " fill="#575757" transform="translate(340,257)"/>
<path d="M0,0 L1,4 L-1,4 L-2,9 L-6,19 L-7,24 L-9,24 L-6,12 L-2,2 Z " fill="#A0A0A0" transform="translate(501,569)"/>
<path d="M0,0 L5,2 L10,6 L14,10 L17,13 L13,13 L13,11 L9,9 L1,3 Z " fill="#6B6B6A" transform="translate(313,980)"/>
<path d="M0,0 L2,0 L1,6 L-1,6 L-2,10 L-8,22 L-9,20 L-4,7 L-1,4 Z " fill="#4E4E4E" transform="translate(437,531)"/>
<path d="M0,0 L4,2 L9,7 L14,10 L21,17 L20,19 L13,12 L10,11 L10,9 L6,7 Z " fill="#292929" transform="translate(698,520)"/>
<path d="M0,0 L1,0 L2,8 L3,9 L4,20 L5,24 L3,28 L0,9 Z " fill="#111111" transform="translate(224,819)"/>
<path d="M0,0 L2,0 L1,6 L-2,23 L-3,23 L-3,10 L-2,9 L-1,1 Z " fill="#333332" transform="translate(489,594)"/>
<path d="M0,0 L1,2 L0,14 L-1,17 L-2,28 L-3,28 L-3,11 L-1,1 Z " fill="#252525" transform="translate(297,424)"/>
<path d="M0,0 L9,1 L15,4 L16,6 L7,5 L1,2 Z " fill="#313131" transform="translate(870,246)"/>
<path d="M0,0 L18,0 L18,1 L5,3 L-8,3 L-8,2 L-1,1 Z " fill="#D9D9D9" transform="translate(424,228)"/>
<path d="M0,0 L3,1 L-2,4 L-7,9 L-14,10 L-10,6 Z " fill="#212121" transform="translate(913,987)"/>
<path d="M0,0 L2,2 L5,9 L7,18 L9,21 L8,25 L8,22 L6,22 L3,12 L0,4 Z " fill="#7E7E7E" transform="translate(299,838)"/>
<path d="M0,0 L5,3 L9,7 L10,13 L5,9 L0,2 Z " fill="#464646" transform="translate(774,493)"/>
<path d="M0,0 L2,1 L3,13 L4,14 L4,25 L2,21 L1,18 Z " fill="#181818" transform="translate(1013,418)"/>
<path d="M0,0 L4,1 L-6,6 L-15,10 L-18,9 L-5,2 Z " fill="#131313" transform="translate(393,312)"/>
<path d="M0,0 L3,0 L3,4 L5,4 L5,8 L7,8 L7,13 L9,13 L9,19 L6,15 L6,11 L4,11 L1,3 Z " fill="#343433" transform="translate(738,567)"/>
<path d="M0,0 L1,2 L-1,8 L-3,30 L-4,30 L-4,16 L-3,5 Z " fill="#060606" transform="translate(791,394)"/>
<path d="M0,0 L15,1 L15,3 L21,3 L24,6 L20,6 L20,4 L13,4 L1,2 Z " fill="#CACACA" transform="translate(825,231)"/>
<path d="M0,0 L1,4 L0,5 L-2,14 L-5,20 L-6,20 L-6,14 L-2,4 Z " fill="#5C5C5C" transform="translate(941,835)"/>
<path d="M0,0 L9,3 L17,11 L14,11 L10,7 L2,3 Z " fill="#7F7F7F" transform="translate(688,516)"/>
<path d="M0,0 L4,1 L2,2 L-6,2 L-6,4 L-11,4 L-11,6 L-20,7 L-19,5 L-14,3 L-8,3 L-8,1 Z " fill="#8A8A8A" transform="translate(589,500)"/>
<path d="M0,0 L1,0 L1,8 L-1,17 L-3,17 L-3,23 L-4,23 L-4,15 L-2,5 Z " fill="#474747" transform="translate(229,398)"/>
<path d="M0,0 L2,1 L0,3 L-2,8 L-6,14 L-9,21 L-10,17 L-6,9 L-2,2 Z " fill="#7C7C7C" transform="translate(797,381)"/>
<path d="M0,0 L5,1 L14,3 L18,8 L6,5 L0,1 Z " fill="#292929" transform="translate(842,313)"/>
<path d="M0,0 L5,1 L13,3 L21,7 L19,8 L13,6 L9,4 L1,3 Z " fill="#5F5F5F" transform="translate(854,239)"/>
<path d="M0,0 L2,1 L-8,6 L-16,12 L-19,11 L-12,5 L-4,1 Z " fill="#9A9A9A" transform="translate(562,510)"/>
<path d="M0,0 L7,2 L7,4 L11,5 L15,7 L13,8 L8,7 L8,5 L0,4 Z " fill="#4A4A4A" transform="translate(886,251)"/>
<path d="M0,0 L8,0 L6,3 L-12,4 L-9,2 Z " fill="#1D1D1D" transform="translate(417,232)"/>
<path d="M0,0 L9,1 L15,3 L22,5 L22,6 L14,6 L6,3 L0,1 Z " fill="#999999" transform="translate(375,1015)"/>
<path d="M0,0 L1,0 L5,13 L5,16 L7,16 L8,21 L4,17 L2,14 L0,8 Z " fill="#262625" transform="translate(300,844)"/>
<path d="M0,0 L2,0 L1,4 L-3,10 L-6,15 L-8,16 L-7,11 L-5,11 L-4,6 Z " fill="#464646" transform="translate(800,729)"/>
<path d="M0,0 L1,0 L1,6 L-4,18 L-6,21 L-6,15 L-4,9 L-2,9 L-2,4 Z " fill="#404040" transform="translate(817,689)"/>
<path d="M0,0 L1,0 L1,10 L-1,10 L-1,17 L-2,18 L-3,26 L-4,26 L-4,16 L-2,16 L-2,7 Z " fill="#525252" transform="translate(825,653)"/>
<path d="M0,0 Z M-1,1 L0,5 L-7,16 L-8,14 L-6,8 L-3,7 L-2,2 Z " fill="#3D3D3D" transform="translate(511,549)"/>
<path d="M0,0 L13,0 L11,2 L-5,4 L-4,2 Z " fill="#272727" transform="translate(413,306)"/>
<path d="M0,0 L4,2 L5,4 L12,8 L17,14 L13,12 L2,4 Z " fill="#323232" transform="translate(926,276)"/>
<path d="M0,0 L1,4 L-1,9 L-3,9 L-4,14 L-6,16 L-6,12 L-4,12 L-4,5 Z " fill="#939392" transform="translate(311,390)"/>
<path d="M0,0 L15,1 L26,3 L26,4 L13,4 L13,2 L1,2 Z " fill="#C9C9C9" transform="translate(415,1025)"/>
<path d="M0,0 L7,1 L7,2 L-5,5 L-12,5 L-10,3 L-2,2 Z " fill="#202020" transform="translate(847,1016)"/>
<path d="M0,0 L2,2 L3,15 L4,16 L4,24 L2,21 L0,5 Z " fill="#A1A1A1" transform="translate(296,814)"/>
<path d="M0,0 L4,2 L10,7 L13,8 L13,10 L15,10 L16,13 L11,11 L3,4 Z " fill="#A2A2A2" transform="translate(531,729)"/>
<path d="M0,0 L2,0 L6,10 L7,19 L5,18 L3,8 L1,8 Z " fill="#9C9C9B" transform="translate(742,578)"/>
<path d="M0,0 L5,4 L7,10 L10,19 L7,16 L0,2 Z " fill="#525252" transform="translate(803,536)"/>
<path d="M0,0 L2,1 L-7,8 L-13,11 L-12,7 L-5,3 Z " fill="#373737" transform="translate(546,517)"/>
<path d="M0,0 L3,4 L4,12 L5,13 L5,23 L4,23 L4,14 L2,14 L0,6 Z " fill="#BDBDBD" transform="translate(1012,401)"/>
<path d="M0,0 L3,0 L3,4 L5,4 L5,8 L7,8 L7,12 L9,12 L9,16 L11,16 L11,21 L10,17 L8,17 L8,13 L6,13 L6,9 L4,9 L4,5 L2,5 Z " fill="#BABABA" transform="translate(990,348)"/>
<path d="M0,0 L7,6 L13,12 L12,14 L2,5 Z " fill="#1F1F1F" transform="translate(943,290)"/>
<path d="M0,0 L4,2 L9,5 L17,13 L14,13 L5,5 L1,3 Z " fill="#999998" transform="translate(929,277)"/>
<path d="M0,0 L2,1 L-3,4 L-6,4 L-6,7 L-15,10 L-11,5 L-7,5 L-7,3 Z " fill="#575756" transform="translate(901,996)"/>
<path d="M0,0 L2,0 L1,6 L-1,14 L-3,14 L-4,17 L-3,11 L-1,1 Z " fill="#949493" transform="translate(1006,869)"/>
<path d="M0,0 L2,1 L0,3 L-3,3 L-3,5 L-14,10 L-16,9 L-10,5 Z " fill="#999999" transform="translate(722,810)"/>
<path d="M0,0 L6,2 L12,9 L11,11 L0,1 Z " fill="#242424" transform="translate(860,377)"/>
<path d="M0,0 L11,1 L11,3 L21,3 L24,5 L9,4 L0,1 Z " fill="#939393" transform="translate(397,1021)"/>
<path d="M0,0 L2,1 L-3,7 L-8,10 L-10,9 L-5,4 Z " fill="#717171" transform="translate(892,916)"/>
<path d="M0,0 L2,1 L2,3 L4,3 L4,7 L6,7 L9,18 L7,17 L0,2 Z " fill="#9F9F9E" transform="translate(308,863)"/>
<path d="M0,0 L2,1 L-1,12 L-4,17 L-5,15 L-3,6 L-1,6 L-1,1 Z " fill="#303030" transform="translate(807,712)"/>
<path d="M0,0 L1,0 L1,8 L-1,15 L-3,24 L-4,24 L-4,16 Z " fill="#979797" transform="translate(491,593)"/>
<path d="M0,0 L5,2 L8,3 L8,5 L10,5 L11,8 L5,6 L0,3 Z " fill="#777777" transform="translate(918,269)"/>
<path d="M0,0 L2,1 L-4,9 L-10,14 L-11,12 L-9,12 L-9,10 L-7,10 L-7,8 L-5,8 L-3,4 Z " fill="#868686" transform="translate(905,902)"/>
<path d="M0,0 L6,0 L6,1 L-7,5 L-15,5 L-15,4 L-9,2 L-1,1 Z " fill="#0F0F0E" transform="translate(669,828)"/>
<path d="M0,0 L2,1 L-9,8 L-13,9 L-13,7 L-10,6 L-8,3 Z " fill="#313131" transform="translate(730,804)"/>
<path d="M0,0 L2,1 L-6,8 L-13,12 L-11,8 L-2,2 Z " fill="#222222" transform="translate(758,782)"/>
<path d="M0,0 L4,1 L-2,6 L-11,7 L-8,5 Z " fill="#262626" transform="translate(682,748)"/>
<path d="M0,0 L3,1 L-5,7 L-12,10 L-15,10 L-10,6 L-5,4 L-4,2 Z " fill="#9B9B9A" transform="translate(691,741)"/>
<path d="M0,0 L1,2 L-1,2 L-2,6 L-9,12 L-11,11 L-6,5 Z " fill="#313131" transform="translate(718,721)"/>
<path d="M0,0 L3,0 L3,5 L5,5 L5,9 L7,9 L7,13 L9,13 L8,17 L8,14 L6,14 L6,10 L4,10 L0,2 Z " fill="#3B3B3B" transform="translate(429,711)"/>
<path d="M0,0 L7,2 L9,3 L9,5 L14,6 L16,8 L10,7 L3,4 L3,2 L0,1 Z " fill="#464646" transform="translate(804,454)"/>
<path d="M0,0 L2,1 L-3,6 L-14,9 L-12,6 L-6,4 Z " fill="#212120" transform="translate(873,932)"/>
<path d="M0,0 L4,2 L16,9 L14,10 L6,7 L6,5 L3,5 Z " fill="#5C5C5C" transform="translate(358,926)"/>
<path d="M0,0 L2,1 L-5,7 L-9,6 L-4,1 Z " fill="#2A2A2A" transform="translate(884,925)"/>
<path d="M0,0 L5,5 L13,14 L10,14 L3,7 L0,2 Z " fill="#323232" transform="translate(331,901)"/>
<path d="M0,0 L2,0 L5,3 L7,13 L5,13 L0,2 Z " fill="#7A7A79" transform="translate(247,904)"/>
<path d="M0,0 L1,4 L-2,12 L-5,18 L-6,14 L-4,14 L-4,9 L-2,3 L0,3 Z " fill="#2A2A2A" transform="translate(748,670)"/>
<path d="M0,0 L1,2 L-4,10 L-6,10 L-7,15 L-8,13 L-7,9 L-5,9 L-5,5 L-3,5 L-2,1 Z " fill="#989897" transform="translate(443,521)"/>
<path d="M0,0 L5,2 L11,7 L9,8 L2,5 L2,3 L0,3 Z " fill="#363636" transform="translate(727,453)"/>
<path d="M0,0 L1,4 L-1,11 L-4,19 L-5,15 Z " fill="#767676" transform="translate(302,411)"/>
<path d="M0,0 L2,1 L-4,5 L-10,10 L-14,11 L-14,9 L-9,6 L-7,3 Z " fill="#8E8E8E" transform="translate(813,370)"/>
<path d="M0,0 L2,0 L7,14 L6,16 L3,11 L3,8 L1,8 Z " fill="#5A5A5A" transform="translate(998,365)"/>
<path d="M0,0 L7,6 L12,11 L11,13 L3,5 L0,3 Z M12,13 L14,13 L13,15 Z " fill="#BDBDBD" transform="translate(282,954)"/>
<path d="M0,0 L1,2 L-6,7 L-8,10 L-11,10 L-11,12 L-13,11 L-8,6 Z " fill="#929292" transform="translate(760,783)"/>
<path d="M0,0 L5,5 L12,13 L11,15 L5,9 L5,7 L3,7 L0,2 Z " fill="#909090" transform="translate(722,545)"/>
<path d="M0,0 L9,0 L17,2 L17,3 L5,3 L5,1 L0,1 Z " fill="#7F7F7E" transform="translate(636,423)"/>
<path d="M0,0 L1,3 L-2,6 L-4,11 L-7,13 L-5,6 L-2,1 Z " fill="#3E3E3E" transform="translate(316,379)"/>
<path d="M0,0 L4,1 L2,3 L-4,5 L-10,5 L-9,3 Z " fill="#9C9C9C" transform="translate(685,826)"/>
<path d="M0,0 L12,3 L12,5 L17,5 L18,7 L11,6 L4,4 L4,2 L0,2 Z " fill="#A5A5A5" transform="translate(537,821)"/>
<path d="M0,0 L1,0 L2,12 L3,14 L3,22 L2,22 L2,16 L0,16 Z " fill="#292929" transform="translate(294,809)"/>
<path d="M0,0 L5,1 L9,2 L9,4 L13,4 L13,6 L16,7 L11,6 L3,3 Z " fill="#B0B0B0" transform="translate(560,749)"/>
<path d="M0,0 L2,0 L2,4 L4,4 L6,10 L5,14 L4,8 L1,8 Z " fill="#737373" transform="translate(423,697)"/>
<path d="M0,0 L1,4 L0,14 L-2,14 L-2,19 L-3,19 L-3,11 L-2,10 Z " fill="#222222" transform="translate(753,649)"/>
<path d="M0,0 L7,1 L15,5 L16,8 L11,6 L1,2 Z " fill="#888888" transform="translate(672,508)"/>
<path d="M0,0 L2,1 L-9,11 L-12,10 Z M-13,11 Z " fill="#4F4F4E" transform="translate(499,461)"/>
<path d="M0,0 L9,3 L12,4 L12,6 L16,7 L14,8 L5,4 L0,2 Z " fill="#676767" transform="translate(700,439)"/>
<path d="M0,0 L10,1 L16,4 L14,5 L7,4 L0,1 Z " fill="#696969" transform="translate(665,428)"/>
<path d="M0,0 L8,0 L8,1 L2,1 L2,3 L-12,4 L-10,2 Z " fill="#646464" transform="translate(575,427)"/>
<path d="M0,0 L5,4 L8,13 L6,13 L6,10 L4,10 L4,7 L2,7 L2,4 L0,4 Z " fill="#ADADAD" transform="translate(919,375)"/>
<path d="M0,0 L2,1 L6,8 L6,10 L8,10 L8,14 L5,14 L5,9 L3,9 Z " fill="#383838" transform="translate(986,343)"/>
<path d="M0,0 L5,0 L2,2 L-3,4 L-4,6 L-11,7 L-7,3 Z " fill="#585857" transform="translate(397,312)"/>
<path d="M0,0 L15,3 L18,6 L14,6 L14,4 L1,3 Z " fill="#B8B8B7" transform="translate(827,310)"/>
<path d="M0,0 L9,3 L10,6 L3,5 L2,2 L0,2 Z " fill="#363636" transform="translate(898,258)"/>
<path d="M0,0 L2,1 L-4,6 L-6,9 L-10,10 L-8,6 Z " fill="#1A1A1A" transform="translate(927,977)"/>
<path d="M0,0 Z M-1,1 L0,4 L-3,7 L-4,10 L-8,11 L-7,6 L-3,5 Z " fill="#8F8F8E" transform="translate(963,946)"/>
<path d="M0,0 L11,0 L16,2 L16,3 L8,3 L0,1 Z " fill="#0F0F0F" transform="translate(582,832)"/>
<path d="M0,0 L2,0 L2,2 L4,2 L7,7 L10,12 L9,14 L2,5 Z " fill="#8E8E8D" transform="translate(783,502)"/>
<path d="M0,0 L2,1 L-8,11 L-10,11 L-8,7 Z " fill="#161616" transform="translate(946,961)"/>
<path d="M0,0 L4,1 L10,8 L5,7 L5,5 L3,5 L3,3 L1,3 Z " fill="#585857" transform="translate(293,964)"/>
<path d="M0,0 L7,1 L13,3 L13,4 L5,4 L0,1 Z " fill="#797979" transform="translate(397,946)"/>
<path d="M0,0 L2,1 L-2,4 L-9,5 L-14,6 L-10,3 Z " fill="#373737" transform="translate(857,941)"/>
<path d="M0,0 L1,2 L-2,10 L-4,10 L-5,14 L-7,15 L-5,9 L-1,1 Z " fill="#8D8D8D" transform="translate(930,865)"/>
<path d="M0,0 L2,0 L6,9 L7,13 L5,13 L5,10 L3,10 L0,2 Z " fill="#A3A3A3" transform="translate(435,725)"/>
<path d="M0,0 L1,0 L1,12 L-2,15 L-2,7 L0,7 Z " fill="#979797" transform="translate(751,647)"/>
<path d="M0,0 L2,4 L3,5 L3,17 L2,17 L0,8 Z " fill="#90908F" transform="translate(749,597)"/>
<path d="M0,0 L1,3 L-2,6 L-6,16 L-7,14 L-4,5 L-2,1 Z " fill="#3D3D3D" transform="translate(502,565)"/>
<path d="M0,0 L7,6 L9,13 L6,11 L6,7 L1,5 Z " fill="#7C7C7C" transform="translate(974,323)"/>
<path d="M0,0 L4,1 L-8,4 L-12,4 L-11,1 Z " fill="#C3C3C3" transform="translate(412,231)"/>
<path d="M0,0 L3,1 L10,9 L10,12 L0,2 Z " fill="#858585" transform="translate(454,756)"/>
<path d="M0,0 L4,2 L8,6 L8,8 L10,8 L9,10 L4,7 Z " fill="#3B3B3B" transform="translate(747,467)"/>
<path d="M0,0 L2,1 L-2,11 L-5,13 L-3,6 L-1,4 Z " fill="#303030" transform="translate(876,433)"/>
<path d="M0,0 L3,1 L3,6 L5,6 L6,13 L4,13 L0,3 Z " fill="#2E2E2E" transform="translate(930,391)"/>
<path d="M0,0 L2,0 L0,5 L-5,12 L-6,10 L-2,2 Z " fill="#474747" transform="translate(323,367)"/>
<path d="M0,0 L5,3 L5,5 L7,5 L10,10 L9,12 L0,2 Z " fill="#7A7A7A" transform="translate(964,311)"/>
<path d="M0,0 L8,0 L9,2 L-4,3 L-3,1 Z " fill="#323232" transform="translate(430,304)"/>
<path d="M0,0 L4,0 L4,3 L-5,5 L-8,5 L-4,2 L0,2 Z " fill="#595959" transform="translate(351,251)"/>
<path d="M0,0 L4,1 L-8,6 L-10,5 L-6,2 Z " fill="#737373" transform="translate(365,245)"/>
<path d="M0,0 L2,1 L-3,5 L-10,5 L-6,2 Z " fill="#1D1D1D" transform="translate(377,242)"/>
<path d="M0,0 L10,0 L6,2 L4,3 L-2,3 L-2,1 Z " fill="#424241" transform="translate(829,1021)"/>
<path d="M0,0 L4,0 L3,3 L-10,4 L-7,2 Z " fill="#919191" transform="translate(849,1018)"/>
<path d="M0,0 L2,0 L2,2 L8,2 L13,5 L11,6 L5,5 L5,3 L1,3 Z " fill="#3B3B3B" transform="translate(385,942)"/>
<path d="M0,0 L0,3 L-6,10 L-8,10 L-6,5 Z " fill="#282828" transform="translate(912,898)"/>
<path d="M0,0 L1,2 L0,7 L-2,8 L-4,11 L-4,5 L-2,1 Z " fill="#212121" transform="translate(1008,862)"/>
<path d="M0,0 L5,1 L8,3 L8,5 L12,6 L10,7 L1,2 Z " fill="#6A6A6A" transform="translate(508,805)"/>
<path d="M0,0 L4,1 L12,4 L13,6 L6,5 L6,3 L1,3 Z " fill="#363636" transform="translate(563,752)"/>
<path d="M0,0 L1,2 L-3,16 L-4,12 L-3,5 L-1,5 Z " fill="#ADADAD" transform="translate(425,555)"/>
<path d="M0,0 L3,2 L6,11 L1,7 Z " fill="#767675" transform="translate(800,527)"/>
<path d="M0,0 L2,1 L-1,4 L-6,7 L-10,9 L-10,7 L-3,1 Z " fill="#919191" transform="translate(484,473)"/>
<path d="M0,0 Z M1,1 L6,5 L12,8 L12,10 L7,8 L1,3 Z " fill="#222222" transform="translate(796,445)"/>
<path d="M0,0 L2,1 L-6,6 L-9,6 L-8,3 Z " fill="#969695" transform="translate(521,447)"/>
<path d="M0,0 L2,1 L-4,5 L-10,5 L-9,3 Z " fill="#3A3A3A" transform="translate(543,438)"/>
<path d="M0,0 L3,3 L4,13 L2,11 L0,5 Z " fill="#202020" transform="translate(788,427)"/>
<path d="M0,0 L1,2 L0,9 L-2,9 L-2,14 L-4,15 L-3,6 Z " fill="#4A4A49" transform="translate(234,383)"/>
<path d="M0,0 L8,0 L8,2 L14,2 L15,4 L6,3 L0,1 Z " fill="#585858" transform="translate(825,309)"/>
<path d="M0,0 L2,1 L-6,7 L-11,8 L-8,4 Z " fill="#363636" transform="translate(326,267)"/>
<path d="M0,0 L7,1 L12,1 L13,4 L4,3 Z " fill="#252525" transform="translate(381,1015)"/>
<path d="M0,0 L1,2 L-4,12 L-7,14 L-5,8 Z " fill="#A8A8A8" transform="translate(991,906)"/>
<path d="M0,0 L1,2 L-4,7 L-6,10 L-8,9 L-2,1 Z " fill="#393939" transform="translate(727,711)"/>
<path d="M0,0 L2,0 L2,6 L4,6 L5,16 L3,15 L0,1 Z " fill="#C5C5C5" transform="translate(817,563)"/>
<path d="M0,0 L3,4 L3,15 L2,15 L0,6 Z " fill="#2A2A2A" transform="translate(942,426)"/>
<path d="M0,0 L1,4 L-1,14 L-2,14 L-2,3 Z " fill="#B0B0B0" transform="translate(224,417)"/>
<path d="M0,0 L2,1 L-3,6 L-7,9 L-9,8 L-4,3 Z " fill="#373737" transform="translate(369,324)"/>
<path d="M0,0 L1,3 L-6,9 L-9,12 L-7,7 Z " fill="#616161" transform="translate(282,303)"/>
<path d="M0,0 L2,1 L-6,5 L-11,4 L-7,3 L-7,1 Z " fill="#232323" transform="translate(828,951)"/>
<path d="M0,0 L5,2 L7,5 L7,8 L4,7 L4,4 L2,4 Z M7,8 Z " fill="#262626" transform="translate(267,934)"/>
<path d="M0,0 L2,1 L-5,9 L-8,8 L-3,3 Z M-9,9 Z " fill="#191919" transform="translate(895,915)"/>
<path d="M0,0 L7,1 L13,3 L13,4 L5,4 L0,1 Z " fill="#5F5F5F" transform="translate(554,826)"/>
<path d="M0,0 L1,2 L-2,7 L-5,9 L-4,4 Z " fill="#7F7F7F" transform="translate(516,545)"/>
<path d="M0,0 L6,0 L10,2 L10,4 L6,4 L6,2 L0,2 Z " fill="#858585" transform="translate(662,504)"/>
<path d="M0,0 L5,2 L5,4 L10,5 L12,7 L7,7 L7,5 L4,5 L4,3 L1,3 Z " fill="#BABABA" transform="translate(802,454)"/>
<path d="M0,0 L5,5 L7,11 L5,10 L4,7 L0,4 Z " fill="#6D6D6C" transform="translate(872,386)"/>
<path d="M0,0 L1,4 L-1,11 L-3,11 L-2,5 Z " fill="#4D4D4C" transform="translate(238,371)"/>
<path d="M0,0 L1,2 L-2,10 L-4,10 L-4,5 L-2,5 L-2,1 Z " fill="#A6A6A6" transform="translate(242,361)"/>
<path d="M0,0 L3,1 L-3,5 L-9,6 L-5,2 Z " fill="#383838" transform="translate(886,1003)"/>
<path d="M0,0 L4,1 L4,3 L7,4 L9,10 L4,5 L0,2 Z " fill="#A3A3A3" transform="translate(863,376)"/>
<path d="M0,0 L2,0 L2,5 L4,5 L5,13 L3,12 L1,7 Z " fill="#3B3B3B" transform="translate(238,881)"/>
<path d="M0,0 L5,1 L10,4 L11,6 L5,4 Z " fill="#353534" transform="translate(516,809)"/>
<path d="M0,0 L2,1 L-2,4 L-10,4 L-7,2 Z " fill="#393939" transform="translate(668,755)"/>
<path d="M0,0 L5,2 L10,5 L8,6 L4,5 L4,3 L0,3 Z " fill="#4D4D4D" transform="translate(553,746)"/>
<path d="M0,0 L1,0 L4,12 L4,14 L2,14 L0,7 Z " fill="#C9C9C9" transform="translate(418,681)"/>
<path d="M0,0 L1,0 L1,6 L-1,11 L-2,11 L-2,3 Z " fill="#767675" transform="translate(749,662)"/>
<path d="M0,0 L2,1 L-1,2 L-1,4 L-9,4 L-5,3 L-5,1 Z " fill="#B2B2B1" transform="translate(850,461)"/>
<path d="M0,0 L1,4 L3,4 L3,12 L2,8 L0,8 Z " fill="#555555" transform="translate(1005,381)"/>
<path d="M0,0 L1,2 L-2,12 L-4,13 L-3,5 L-1,5 Z " fill="#B8B8B7" transform="translate(235,376)"/>
<path d="M0,0 L5,1 L9,5 L6,5 L3,4 L3,2 L0,1 Z " fill="#747474" transform="translate(874,330)"/>
<path d="M0,0 L4,2 L7,10 L5,10 L1,3 Z " fill="#9E9E9D" transform="translate(447,746)"/>
<path d="M0,0 L2,0 L5,6 L5,8 L7,8 L6,10 L3,8 Z " fill="#393939" transform="translate(450,747)"/>
<path d="M0,0 L1,2 L-2,12 L-3,12 L-3,5 Z " fill="#171717" transform="translate(791,394)"/>
<path d="M0,0 L4,2 L6,5 L5,8 L1,4 Z " fill="#818180" transform="translate(910,362)"/>
<path d="M0,0 L4,1 L5,5 L1,3 Z M5,5 L8,7 L7,9 Z " fill="#1B1B1B" transform="translate(909,359)"/>
<path d="M0,0 L9,1 L9,3 L13,4 L7,4 L0,1 Z " fill="#CACAC9" transform="translate(852,237)"/>
<path d="M0,0 L1,0 L1,8 L-2,7 L-1,1 Z " fill="#BEBEBE" transform="translate(1010,861)"/>
<path d="M0,0 L1,0 L1,6 L-2,7 L-3,10 L-2,5 Z " fill="#828282" transform="translate(934,855)"/>
<path d="M0,0 L1,2 L-2,12 L-3,12 L-3,6 Z " fill="#9F9F9F" transform="translate(938,843)"/>
<path d="M0,0 L5,1 L10,3 L8,4 L1,3 Z " fill="#292929" transform="translate(548,823)"/>
<path d="M0,0 L2,1 L-3,6 L-6,6 L-1,1 Z " fill="#292929" transform="translate(738,797)"/>
<path d="M0,0 L2,0 L1,8 L-2,10 L-1,5 Z " fill="#4A4A4A" transform="translate(425,557)"/>
<path d="M0,0 L4,1 L-5,4 L-5,1 Z " fill="#5C5C5B" transform="translate(565,507)"/>
<path d="M0,0 L5,2 L7,6 L2,4 L0,3 Z " fill="#717170" transform="translate(740,461)"/>
<path d="M0,0 L2,1 L4,7 L3,11 L3,9 L1,9 Z " fill="#6E6E6E" transform="translate(938,415)"/>
<path d="M0,0 L2,0 L2,4 L4,4 L4,8 L1,8 Z " fill="#4C4C4C" transform="translate(994,357)"/>
<path d="M0,0 L1,2 L-1,8 L-4,10 L-1,1 Z " fill="#3F3F3F" transform="translate(246,355)"/>
<path d="M0,0 L5,1 L7,2 L7,4 L10,5 L5,4 L0,1 Z " fill="#5B5B5B" transform="translate(842,313)"/>
<path d="M0,0 L9,1 L10,3 L4,3 Z " fill="#191919" transform="translate(857,242)"/>
<path d="M0,0 L5,1 L6,6 L0,1 Z " fill="#393938" transform="translate(465,768)"/>
<path d="M0,0 L2,1 L0,6 L-4,9 L-2,5 Z " fill="#565656" transform="translate(784,753)"/>
<path d="M0,0 L3,0 L5,3 L5,6 L2,5 Z " fill="#393939" transform="translate(445,741)"/>
<path d="M0,0 L1,3 L-3,10 L-5,9 L-1,1 Z " fill="#B4B4B3" transform="translate(800,733)"/>
<path d="M0,0 L2,0 L2,5 L4,5 L4,11 L1,7 Z " fill="#262626" transform="translate(743,575)"/>
<path d="M0,0 Z M-1,1 L0,5 L-3,10 L-4,8 L-2,2 Z " fill="#393939" transform="translate(511,549)"/>
<path d="M0,0 L1,4 L-3,8 L-3,5 Z " fill="#1C1C1C" transform="translate(445,520)"/>
<path d="M0,0 L0,3 L-5,8 L-3,2 Z " fill="#7E7E7D" transform="translate(452,508)"/>
<path d="M0,0 L9,3 L8,6 L3,4 Z " fill="#B0B0B0" transform="translate(732,455)"/>
<path d="M0,0 L2,1 L-2,2 L-2,4 L-8,5 L-4,1 Z " fill="#A4A4A3" transform="translate(379,322)"/>
</svg>
