<?xml version="1.0" encoding="UTF-8"?>
<!-- Generator: visioncortex VTracer 0.6.5 -->
<svg version="1.1" xmlns="http://www.w3.org/2000/svg" width="1254" height="1254">
<path d="M0,0 L80,0 L109,2 L150,8 L184,15 L198,19 L214,23 L233,29 L254,36 L274,44 L286,49 L302,56 L327,68 L340,75 L349,80 L361,87 L377,97 L391,106 L402,114 L419,126 L431,136 L441,144 L452,153 L460,160 L460,162 L464,164 L472,171 L472,173 L476,175 L494,193 L494,195 L498,197 L505,205 L505,207 L509,209 L521,223 L532,237 L541,248 L549,259 L556,269 L563,279 L576,299 L580,306 L587,318 L593,329 L602,346 L613,369 L621,387 L626,400 L632,416 L640,439 L645,456 L650,476 L653,487 L658,512 L664,551 L666,568 L666,686 L662,716 L658,742 L651,775 L647,791 L641,810 L637,823 L631,841 L623,861 L618,873 L611,889 L599,914 L591,929 L580,948 L576,955 L569,966 L561,978 L553,989 L541,1006 L537,1011 L536,1013 L534,1013 L532,1017 L523,1028 L514,1039 L507,1047 L505,1047 L503,1051 L496,1059 L494,1059 L492,1063 L474,1081 L472,1081 L470,1085 L462,1092 L460,1092 L458,1096 L444,1108 L430,1119 L426,1121 L426,1123 L420,1127 L408,1136 L398,1143 L388,1150 L371,1161 L361,1167 L349,1174 L335,1182 L316,1191 L300,1199 L277,1209 L262,1215 L242,1222 L228,1227 L211,1232 L191,1237 L180,1240 L155,1245 L145,1247 L123,1250 L99,1253 L81,1254 L-1,1254 L-29,1252 L-70,1246 L-93,1241 L-108,1238 L-124,1234 L-143,1228 L-156,1224 L-174,1218 L-194,1210 L-206,1205 L-222,1198 L-247,1186 L-260,1179 L-269,1174 L-281,1167 L-297,1157 L-311,1148 L-322,1140 L-339,1128 L-351,1118 L-361,1110 L-372,1101 L-380,1094 L-380,1092 L-384,1090 L-392,1083 L-397,1078 L-413,1062 L-420,1054 L-425,1049 L-425,1047 L-429,1045 L-441,1031 L-452,1017 L-461,1006 L-469,995 L-476,985 L-483,975 L-494,958 L-500,948 L-507,936 L-513,925 L-522,908 L-533,885 L-541,867 L-546,854 L-552,838 L-560,815 L-565,798 L-571,774 L-575,756 L-580,731 L-585,696 L-587,667 L-588,644 L-588,610 L-586,568 L-582,538 L-578,512 L-572,483 L-568,469 L-564,453 L-558,434 L-552,416 L-544,395 L-537,379 L-532,367 L-524,351 L-515,332 L-510,324 L-507,318 L-500,306 L-496,299 L-483,279 L-476,269 L-468,258 L-460,247 L-447,231 L-439,221 L-428,208 L-423,203 L-416,195 L-411,190 L-395,174 L-387,167 L-380,161 L-375,156 L-363,145 L-354,138 L-340,127 L-328,118 L-318,111 L-308,104 L-291,93 L-281,87 L-269,80 L-258,74 L-241,65 L-218,54 L-200,46 L-187,41 L-171,35 L-148,27 L-131,22 L-107,16 L-89,12 L-64,7 L-29,2 Z " fill="#FEFEFE" transform="translate(588,0)"/>
<path d="M0,0 L40,0 L67,4 L93,12 L110,20 L130,32 L146,44 L159,55 L162,59 L162,61 L166,63 L176,77 L184,91 L195,114 L203,135 L209,159 L211,182 L211,510 L210,511 L59,511 L58,510 L57,227 L55,213 L51,197 L43,181 L36,171 L26,161 L15,154 L5,149 L-12,144 L-18,143 L-52,143 L-68,147 L-80,151 L-94,158 L-98,161 L-100,161 L-101,164 L-108,170 L-111,174 L-113,174 L-114,178 L-120,187 L-127,201 L-131,213 L-135,233 L-136,510 L-137,511 L-287,511 L-289,510 L-289,10 L-288,9 L-145,9 L-144,78 L-137,69 L-131,62 L-129,62 L-127,58 L-117,49 L-107,41 L-95,33 L-82,25 L-63,16 L-48,10 L-27,4 Z " fill="#030200" transform="translate(793,493)"/>
<path d="M0,0 L155,0 L156,1 L156,501 L155,502 L1,502 L0,501 Z " fill="#000000" transform="translate(264,502)"/>
<path d="M0,0 L12,0 L31,3 L48,10 L59,17 L72,29 L81,40 L87,51 L93,66 L95,80 L95,100 L92,116 L85,133 L83,136 L81,136 L80,141 L77,145 L75,145 L73,150 L70,153 L68,153 L66,157 L61,159 L61,161 L52,167 L40,173 L25,178 L19,179 L-7,179 L-21,176 L-34,171 L-48,162 L-60,151 L-68,142 L-76,128 L-82,111 L-84,95 L-84,85 L-82,68 L-75,49 L-68,38 L-60,28 L-55,23 L-43,14 L-27,6 L-15,2 Z " fill="#030200" transform="translate(336,250)"/>
<path d="M0,0 L155,0 L156,1 L156,501 L155,502 L1,502 L0,501 Z M1,2 L1,500 L154,500 L154,2 Z " fill="#69451A" transform="translate(264,502)"/>
<path d="M0,0 L6,1 L18,4 L45,4 L60,3 L57,5 L47,7 L21,7 L7,4 L0,1 Z " fill="#664118" transform="translate(308,422)"/>
<path d="M0,0 L2,1 L-10,14 L-15,19 L-18,18 L-14,13 L-12,13 L-10,9 Z " fill="#563815" transform="translate(676,542)"/>
<path d="M0,0 L2,1 L-9,13 L-13,16 L-15,15 L-11,10 L-6,5 Z " fill="#5B3B16" transform="translate(287,268)"/>
<path d="M0,0 L5,2 L14,12 L11,12 L0,1 Z " fill="#5E3D17" transform="translate(272,396)"/>
<path d="M0,0 L6,1 L18,4 L19,6 L10,5 L0,1 Z " fill="#7F5421" transform="translate(308,422)"/>
<path d="M0,0 L2,1 L-6,8 L-10,12 L-8,6 L-3,1 Z " fill="#6C471C" transform="translate(691,655)"/>
<path d="M0,0 L7,6 L9,10 L3,6 L0,2 Z " fill="#614018" transform="translate(401,273)"/>
<path d="M0,0 L0,3 L-4,5 L-6,9 L-9,9 L-3,2 Z " fill="#8A5921" transform="translate(408,398)"/>
<path d="M0,0 L2,1 L0,4 L-5,7 L-8,7 Z " fill="#734B1C" transform="translate(686,534)"/>
<path d="M0,0 L1,2 L-1,8 L-4,11 L-1,1 Z " fill="#7F521E" transform="translate(262,298)"/>
</svg>
